var fontJSON=
{"glyphs":{"0":{"ha":1075,"x_min":0,"x_max":0,"o":"m 537 984 b 63 486 275 984 63 761 b 537 -12 63 211 275 -12 b 1012 486 799 -12 1012 211 b 537 984 1012 761 799 984 z m 577 25 b 260 462 425 12 283 207 b 497 947 238 717 344 934 b 814 510 650 961 791 765 b 577 25 836 256 730 38 z "},"1":{"ha":447,"x_min":0,"x_max":0,"o":"m 317 139 l 317 972 l 282 972 b 282 972 282 972 282 964 b 63 880 265 937 184 880 l 63 862 b 132 741 63 862 132 862 l 132 139 b 63 17 132 17 63 17 l 63 0 l 387 0 l 387 17 b 317 139 387 17 317 17 z "},"2":{"ha":890,"x_min":0,"x_max":0,"o":"m 636 185 l 122 185 b 821 741 249 400 821 381 b 462 984 821 920 636 984 b 115 880 323 984 196 943 l 207 694 b 462 949 207 816 288 949 b 682 793 560 949 682 920 b 57 0 682 515 57 619 l 775 0 l 821 312 l 803 312 b 636 185 803 312 769 185 z "},"3":{"ha":906,"x_min":0,"x_max":0,"o":"m 583 536 b 815 758 695 558 815 615 b 439 984 815 903 659 984 b 98 880 283 984 202 949 l 190 694 b 433 949 190 816 271 949 b 630 752 561 949 630 856 b 422 556 630 683 607 556 l 422 521 b 653 260 624 521 653 365 b 422 23 653 81 549 23 b 144 278 242 23 144 156 l 51 93 b 433 -12 132 29 277 -12 b 838 255 653 -12 838 64 b 583 536 838 419 716 501 z "},"4":{"ha":922,"x_min":0,"x_max":0,"o":"m 787 139 l 787 208 l 856 208 l 856 394 l 787 394 l 787 972 l 787 972 l 752 972 l 752 972 l 69 208 l 602 208 l 602 139 b 532 17 602 17 532 17 l 532 0 l 856 0 l 856 17 b 787 139 856 17 787 17 z m 270 394 l 602 765 l 602 394 z "},"5":{"ha":917,"x_min":0,"x_max":0,"o":"m 417 625 b 124 541 352 625 222 612 l 143 787 l 631 787 b 799 660 765 787 799 660 l 816 660 l 770 972 l 122 972 l 87 510 b 87 509 87 510 87 509 l 122 509 b 417 590 209 561 284 590 b 666 307 625 590 666 422 b 434 23 666 110 562 23 b 156 278 255 23 156 156 l 64 93 b 446 -12 145 29 290 -12 b 851 307 666 -12 851 87 b 417 625 851 550 614 625 z "},"6":{"ha":939,"x_min":0,"x_max":0,"o":"m 494 637 b 494 637 494 637 494 637 b 406 625 465 637 435 632 b 320 587 374 616 345 603 b 263 533 297 571 278 553 b 505 949 275 766 379 949 b 713 694 627 949 713 812 l 806 880 b 505 984 723 946 618 984 b 65 486 262 984 65 787 b 505 -12 65 231 187 -12 b 875 324 748 -12 875 127 b 494 637 875 527 725 637 z m 505 23 b 263 435 338 23 271 203 b 494 602 275 557 405 602 b 702 324 627 602 702 503 b 505 23 702 139 621 23 z "},"7":{"ha":932,"x_min":0,"x_max":0,"o":"m 98 972 l 51 660 l 69 660 b 237 787 69 660 103 787 l 711 787 l 144 0 l 329 0 l 862 972 z "},"8":{"ha":976,"x_min":0,"x_max":0,"o":"m 638 540 b 835 752 755 573 835 647 b 488 984 835 899 680 984 b 141 752 296 984 141 899 b 338 540 141 647 221 573 b 60 272 175 505 60 411 b 488 -12 60 93 251 -12 b 916 272 724 -12 916 93 b 638 540 916 411 800 505 z m 488 949 b 650 752 577 949 650 861 b 488 556 650 644 577 556 b 326 752 398 556 326 644 b 488 949 326 861 398 949 z m 488 23 b 251 272 357 23 251 135 b 488 521 251 409 357 521 b 725 272 619 521 725 409 b 488 23 725 135 619 23 z "},"9":{"ha":938,"x_min":0,"x_max":0,"o":"m 433 984 b 63 648 190 984 63 845 b 444 336 63 446 213 336 b 444 336 444 336 444 336 b 532 348 473 336 503 340 b 618 386 564 356 593 369 b 675 440 641 401 660 419 b 433 23 662 206 559 23 b 225 278 311 23 225 160 l 132 93 b 433 -12 215 26 320 -12 b 873 486 676 -12 873 185 b 433 984 873 741 751 984 z m 444 370 b 236 648 311 370 236 469 b 433 949 236 833 317 949 b 675 537 600 949 667 769 b 444 370 663 415 533 370 z "},"\u0000":{"ha":0,"x_min":0,"x_max":0,"o":""},"\n":{"ha":0,"x_min":0,"x_max":0,"o":""},"\r":{"ha":0,"x_min":0,"x_max":0,"o":""}," ":{"ha":508,"x_min":0,"x_max":0,"o":""},"!":{"ha":371,"x_min":0,"x_max":0,"o":"m 203 260 l 278 972 l 93 972 l 168 260 z m 185 243 b 64 122 118 243 64 189 b 185 0 64 54 118 0 b 307 122 253 0 307 54 b 185 243 307 189 253 243 z "},"\"":{"ha":615,"x_min":0,"x_max":0,"o":"m 174 972 b 53 851 107 972 53 918 b 122 741 53 802 81 760 b 122 741 122 741 122 741 b 145 666 185 711 145 666 b 296 851 273 700 296 793 b 174 972 296 918 241 972 z m 441 972 b 319 851 373 972 319 918 b 388 741 319 802 347 760 b 388 741 388 741 388 741 b 412 666 451 711 412 666 b 562 851 539 700 562 793 b 441 972 562 918 508 972 z "},"“":{"ha":615,"x_min":0,"x_max":0,"o":"m 174 972 b 53 851 107 972 53 918 b 122 741 53 802 81 760 b 122 741 122 741 122 741 b 145 666 185 711 145 666 b 296 851 273 700 296 793 b 174 972 296 918 241 972 z m 441 972 b 319 851 373 972 319 918 b 388 741 319 802 347 760 b 388 741 388 741 388 741 b 412 666 451 711 412 666 b 562 851 539 700 562 793 b 441 972 562 918 508 972 z "},"”":{"ha":615,"x_min":0,"x_max":0,"o":"m 174 972 b 53 851 107 972 53 918 b 122 741 53 802 81 760 b 122 741 122 741 122 741 b 145 666 185 711 145 666 b 296 851 273 700 296 793 b 174 972 296 918 241 972 z m 441 972 b 319 851 373 972 319 918 b 388 741 319 802 347 760 b 388 741 388 741 388 741 b 412 666 451 711 412 666 b 562 851 539 700 562 793 b 441 972 562 918 508 972 z "},"#":{"ha":576,"x_min":0,"x_max":0,"o":"m 520 556 l 520 590 l 432 590 l 474 718 l 439 718 l 398 590 l 247 590 l 288 718 l 254 718 l 212 590 l 57 590 l 57 556 l 201 556 l 156 417 l 57 417 l 57 382 l 145 382 l 103 255 l 138 255 l 179 382 l 330 382 l 288 255 l 323 255 l 365 382 l 520 382 l 520 417 l 376 417 l 421 556 z m 341 417 l 191 417 l 236 556 l 386 556 z "},"$":{"ha":819,"x_min":0,"x_max":0,"o":"m 428 573 l 428 895 b 625 670 559 885 625 773 l 707 834 b 428 926 639 887 543 922 l 428 972 l 393 972 l 393 926 b 73 711 244 922 73 864 b 393 410 73 537 242 471 l 393 77 b 144 302 239 80 144 196 l 63 138 b 393 46 133 83 258 47 l 393 0 l 428 0 l 428 47 b 758 266 610 53 758 115 b 428 573 758 446 583 513 z m 393 587 b 195 757 285 630 195 673 b 393 895 195 863 308 892 z m 428 78 l 428 396 b 630 215 538 351 630 305 b 428 78 630 126 531 84 z "},"%":{"ha":990,"x_min":0,"x_max":0,"o":"m 761 972 l 194 0 l 229 0 l 796 972 z m 495 723 b 275 984 495 867 397 984 b 56 723 154 984 56 867 b 275 463 56 580 154 463 b 495 723 397 463 495 580 z m 164 712 b 258 949 154 837 197 943 b 386 735 319 955 377 859 b 293 498 396 610 354 504 b 164 712 231 492 174 588 z m 715 509 b 495 249 593 509 495 393 b 715 -12 495 105 593 -12 b 934 249 836 -12 934 105 b 715 509 934 393 836 509 z m 732 23 b 603 238 671 17 613 113 b 697 474 594 362 636 468 b 826 260 759 480 816 385 b 732 23 835 136 793 30 z "},"&":{"ha":965,"x_min":0,"x_max":0,"o":"m 916 272 l 725 272 b 725 272 725 272 725 272 b 717 210 725 251 722 230 b 401 590 605 344 469 507 b 320 781 373 625 320 700 b 500 949 320 880 407 949 b 708 694 656 949 708 816 l 800 880 b 505 984 719 943 638 984 b 152 752 291 984 152 891 b 210 590 152 694 175 637 b 266 520 224 571 244 547 b 60 272 142 475 60 390 b 488 -12 60 93 251 -12 b 692 18 562 -12 631 -1 b 708 0 702 6 708 0 l 893 0 b 822 85 893 0 865 33 b 916 272 881 132 916 195 z m 488 23 b 251 272 357 23 251 135 b 323 451 251 342 279 405 b 639 80 426 327 559 172 b 488 23 598 45 545 23 z "},"'":{"ha":350,"x_min":0,"x_max":0,"o":"m 174 972 b 53 851 107 972 53 918 b 122 741 53 802 81 760 b 122 741 122 741 122 741 b 145 666 185 711 145 666 b 296 851 273 700 296 793 b 174 972 296 918 241 972 z "},"‘":{"ha":350,"x_min":0,"x_max":0,"o":"m 174 972 b 53 851 107 972 53 918 b 122 741 53 802 81 760 b 122 741 122 741 122 741 b 145 666 185 711 145 666 b 296 851 273 700 296 793 b 174 972 296 918 241 972 z "},"’":{"ha":350,"x_min":0,"x_max":0,"o":"m 174 972 b 53 851 107 972 53 918 b 122 741 53 802 81 760 b 122 741 122 741 122 741 b 145 666 185 711 145 666 b 296 851 273 700 296 793 b 174 972 296 918 241 972 z "},"(":{"ha":461,"x_min":0,"x_max":0,"o":"m 412 937 l 412 972 b 65 486 208 972 65 755 b 412 0 65 218 208 0 l 412 35 b 262 486 291 35 262 236 b 412 937 262 736 291 937 z "},")":{"ha":461,"x_min":0,"x_max":0,"o":"m 49 972 l 49 937 b 199 486 170 937 199 736 b 49 35 199 236 170 35 l 49 0 b 396 486 253 0 396 218 b 49 972 396 755 253 972 z "},"*":{"ha":388,"x_min":0,"x_max":0,"o":"m 324 819 l 225 840 l 324 860 b 334 876 332 862 337 870 l 297 936 b 278 936 293 941 284 941 l 208 864 l 240 956 b 230 972 242 964 237 972 l 156 972 b 147 956 149 972 144 964 l 179 864 l 109 936 b 89 936 103 941 93 941 l 52 876 b 62 860 49 870 54 862 l 165 840 l 62 819 b 52 804 54 817 49 809 l 89 744 b 109 744 93 738 103 738 l 179 815 l 147 723 b 156 707 144 715 149 707 l 230 707 b 240 723 237 707 242 715 l 208 816 l 278 744 b 297 744 284 738 293 738 l 334 804 b 324 819 337 809 332 817 z m 193 840 b 193 840 193 840 193 840 b 193 840 193 840 193 840 b 193 840 193 840 193 840 b 193 840 193 840 193 840 b 193 840 193 840 193 840 b 193 840 193 840 193 840 z "},"+":{"ha":553,"x_min":0,"x_max":0,"o":"m 293 503 l 293 718 l 259 718 l 259 503 l 44 503 l 44 469 l 259 469 l 259 255 l 293 255 l 293 469 l 507 469 l 507 503 z "},",":{"ha":347,"x_min":0,"x_max":0,"o":"m 173 243 b 51 122 106 243 51 189 b 121 12 51 73 80 31 b 121 12 121 12 121 12 b 144 -64 184 -18 144 -64 b 294 122 271 -29 294 64 b 173 243 294 189 240 243 z "},"-":{"ha":528,"x_min":0,"x_max":0,"o":"m 495 469 l 495 503 l 32 503 l 32 469 z "},".":{"ha":346,"x_min":0,"x_max":0,"o":"m 173 0 b 294 122 240 0 294 54 b 173 243 294 189 240 243 b 51 122 106 243 51 189 b 173 0 51 54 106 0 z "},"/":{"ha":601,"x_min":0,"x_max":0,"o":"m 498 972 l 69 0 l 104 0 l 532 972 z "},":":{"ha":367,"x_min":0,"x_max":0,"o":"m 218 515 b 300 666 283 534 319 602 b 148 747 280 730 212 767 b 67 596 84 728 47 660 b 218 515 86 532 154 495 z m 242 236 b 289 401 300 268 321 342 b 124 448 256 459 182 481 b 76 283 65 416 44 342 b 242 236 109 224 183 203 z "},";":{"ha":368,"x_min":0,"x_max":0,"o":"m 183 463 b 61 341 116 463 61 409 b 131 232 61 293 90 251 b 131 232 131 232 131 232 b 154 156 194 202 154 156 b 304 341 281 191 304 284 b 183 463 304 409 250 463 z m 218 515 b 299 666 282 534 319 602 b 148 747 280 730 212 767 b 66 596 83 728 47 660 b 218 515 86 532 154 495 z "},"<":{"ha":574,"x_min":0,"x_max":0,"o":"m 524 648 l 38 486 l 524 324 l 524 359 l 142 486 l 524 613 z "},"=":{"ha":542,"x_min":0,"x_max":0,"o":"m 502 521 l 502 556 l 39 556 l 39 521 z m 502 417 l 502 451 l 39 451 l 39 417 z "},">":{"ha":574,"x_min":0,"x_max":0,"o":"m 50 648 l 50 613 l 432 486 l 50 359 l 50 324 l 536 486 z "},"?":{"ha":792,"x_min":0,"x_max":0,"o":"m 381 243 b 259 122 313 243 259 189 b 381 0 259 54 313 0 b 502 122 448 0 502 54 b 381 243 502 189 448 243 z m 381 984 b 33 880 242 984 114 943 l 126 694 b 381 949 126 816 207 949 b 600 781 479 949 600 909 b 363 260 600 544 363 660 l 398 260 b 739 747 398 532 739 475 b 381 984 739 926 554 984 z "},"@":{"ha":1121,"x_min":0,"x_max":0,"o":"m 1058 486 b 560 984 1058 761 835 984 b 63 486 285 984 63 761 b 560 -12 63 211 285 -12 b 939 163 712 -12 848 56 b 881 148 922 155 903 150 b 560 17 797 67 685 17 b 97 486 304 17 97 227 b 560 955 97 745 304 955 b 1023 486 816 955 1023 745 b 963 256 1023 402 1001 324 b 891 216 961 252 946 216 b 850 295 891 216 850 214 l 850 498 b 543 804 850 695 757 804 b 325 717 440 804 390 766 b 412 542 412 542 412 542 b 543 772 412 733 489 772 b 675 515 659 772 674 660 b 522 553 647 538 599 553 b 259 362 347 553 259 476 l 259 362 b 522 170 259 247 347 170 b 688 222 613 170 664 191 b 740 179 707 181 740 179 l 832 179 b 992 238 919 179 960 186 l 992 238 b 1058 486 1034 311 1058 396 z m 675 283 b 565 203 675 204 582 203 b 434 362 472 203 434 272 b 565 520 434 452 472 520 b 675 441 582 520 675 519 b 675 283 675 441 675 287 l 675 283 z "},"A":{"ha":956,"x_min":0,"x_max":0,"o":"m 844 139 l 495 972 l 460 972 l 112 139 b -8 17 61 17 -8 17 l -8 0 l 165 0 l 165 17 b 133 101 165 17 111 17 b 262 227 159 148 205 193 b 588 307 349 279 459 306 l 658 139 b 640 17 709 17 640 17 l 640 0 l 964 0 l 964 17 b 844 139 964 17 894 17 z m 392 318 b 244 257 337 304 288 283 b 175 207 219 242 196 225 l 403 751 l 574 341 b 392 318 509 340 448 332 z "},"B":{"ha":964,"x_min":0,"x_max":0,"o":"m 624 563 b 854 758 761 591 854 652 b 402 972 854 914 652 972 l 32 972 l 32 955 b 101 833 32 955 101 955 l 101 139 b 32 17 101 17 32 17 l 32 0 l 449 0 l 449 0 l 449 0 b 935 289 717 0 935 98 b 624 563 935 436 806 528 z m 402 937 b 680 758 559 937 680 891 b 472 579 680 642 564 579 b 396 567 445 579 419 575 b 324 525 368 558 344 544 b 287 477 309 511 297 495 l 287 937 z m 449 35 l 287 35 l 287 324 b 472 544 287 523 416 544 b 738 295 611 544 738 460 b 449 35 738 122 608 35 z "},"C":{"ha":872,"x_min":0,"x_max":0,"o":"m 589 46 b 231 461 392 46 253 206 b 508 949 209 716 328 949 b 728 694 641 949 728 816 l 820 880 b 519 984 738 946 633 984 b 33 486 251 984 33 761 b 519 -12 33 211 247 -12 b 855 139 751 -12 838 110 l 855 174 b 589 46 855 174 774 46 z "},"D":{"ha":968,"x_min":0,"x_max":0,"o":"m 449 972 l 449 972 l 449 972 l 32 972 l 32 955 b 101 833 32 955 101 955 l 101 139 b 32 17 101 17 32 17 l 32 0 l 449 0 b 935 486 717 0 935 218 b 449 972 935 755 717 972 z m 449 35 l 287 35 l 287 937 l 449 937 b 738 486 608 937 738 736 b 449 35 738 236 608 35 z "},"E":{"ha":815,"x_min":0,"x_max":0,"o":"m 778 162 b 611 35 778 162 744 35 l 287 35 l 287 255 b 425 483 287 378 352 448 b 547 446 536 535 547 446 l 564 446 l 564 619 l 547 619 b 454 532 547 619 544 562 l 454 532 b 363 486 420 521 390 505 b 287 399 331 462 305 433 l 287 937 l 587 937 b 755 810 721 937 755 810 l 773 810 l 750 972 l 32 972 l 32 955 b 101 833 32 955 101 955 l 101 139 b 32 17 101 17 32 17 l 32 0 l 773 0 l 796 162 z "},"F":{"ha":797,"x_min":0,"x_max":0,"o":"m 796 810 l 773 972 l 32 972 l 32 955 b 101 833 32 955 101 955 l 101 139 b 32 17 101 17 32 17 l 32 0 l 356 0 l 356 17 b 287 139 356 17 287 17 l 287 255 b 425 483 287 378 352 448 b 547 446 536 535 547 446 l 564 446 l 564 619 l 547 619 b 454 532 547 619 544 562 l 454 532 b 363 486 420 521 390 505 b 287 399 331 462 305 433 l 287 937 l 611 937 b 778 810 744 937 778 810 z "},"G":{"ha":899,"x_min":0,"x_max":0,"o":"m 786 486 l 600 486 l 600 469 b 670 347 600 469 670 469 l 670 55 b 589 46 646 50 619 46 b 231 461 392 46 253 206 b 508 949 209 716 328 949 b 728 694 641 949 728 816 l 820 880 b 519 984 738 946 633 984 b 33 486 251 984 33 761 b 519 -12 33 211 247 -12 b 786 66 649 -12 734 27 b 855 185 790 69 855 116 l 855 365 b 786 486 855 486 786 486 z "},"H":{"ha":990,"x_min":0,"x_max":0,"o":"m 958 955 l 958 972 l 634 972 l 634 955 b 703 833 634 955 703 955 l 703 502 b 554 480 650 499 600 492 b 406 419 499 466 449 445 b 307 339 367 396 334 369 b 287 314 300 331 293 322 l 287 833 b 356 955 287 955 356 955 l 356 972 l 32 972 l 32 955 b 101 833 32 955 101 955 l 101 139 b 32 17 101 17 32 17 l 32 0 l 356 0 l 356 17 b 287 139 356 17 287 17 l 287 245 b 424 389 310 299 359 351 b 703 467 500 435 594 461 l 703 139 b 634 17 703 17 634 17 l 634 0 l 958 0 l 958 17 b 888 139 958 17 888 17 l 888 833 b 958 955 888 955 958 955 z "},"I":{"ha":389,"x_min":0,"x_max":0,"o":"m 356 955 l 356 972 l 32 972 l 32 955 b 101 833 32 955 101 955 l 101 139 b 32 17 101 17 32 17 l 32 0 l 356 0 l 356 17 b 287 139 356 17 287 17 l 287 833 b 356 955 287 955 356 955 z "},"J":{"ha":768,"x_min":0,"x_max":0,"o":"m 418 972 l 418 955 b 488 833 418 955 488 955 l 488 278 b 308 23 488 87 435 23 b 94 278 181 23 94 156 l 1 93 b 302 -12 84 26 189 -12 b 673 278 498 -12 673 64 l 673 833 b 742 955 673 955 742 955 l 742 972 z "},"K":{"ha":996,"x_min":0,"x_max":0,"o":"m 790 139 l 321 532 l 676 833 b 888 955 819 955 888 955 l 888 972 l 715 972 l 715 955 b 641 833 715 955 784 955 l 287 532 l 287 833 b 356 955 287 955 356 955 l 356 972 l 32 972 l 32 955 b 101 833 32 955 101 955 l 101 139 b 32 17 101 17 32 17 l 32 0 l 356 0 l 356 17 b 287 139 356 17 287 17 l 287 406 l 605 139 b 680 17 750 17 680 17 l 680 0 l 1004 0 l 1004 17 b 790 139 1004 17 935 17 z "},"L":{"ha":797,"x_min":0,"x_max":0,"o":"m 778 162 b 611 35 778 162 744 35 l 287 35 l 287 833 b 356 955 287 955 356 955 l 356 972 l 32 972 l 32 955 b 101 833 32 955 101 955 l 101 139 b 32 17 101 17 32 17 l 32 0 l 773 0 l 796 162 z "},"M":{"ha":1129,"x_min":0,"x_max":0,"o":"m 1097 955 l 1097 972 l 842 972 l 556 222 l 217 972 l 32 972 l 32 955 b 101 833 32 955 101 955 l 101 139 b 32 17 101 17 32 17 l 32 0 l 206 0 l 206 17 b 136 139 206 17 136 17 l 136 742 l 472 0 l 506 0 l 842 881 l 842 139 b 773 17 842 17 773 17 l 773 0 l 1097 0 l 1097 17 b 1027 139 1097 17 1027 17 l 1027 833 b 1097 955 1027 955 1097 955 z "},"N":{"ha":872,"x_min":0,"x_max":0,"o":"m 669 972 l 669 955 b 738 833 669 955 738 955 l 738 253 l 211 972 l 32 972 l 32 955 b 101 833 32 955 101 955 l 101 139 b 32 17 101 17 32 17 l 32 0 l 206 0 l 206 17 b 136 139 206 17 136 17 l 136 821 l 738 0 l 773 0 l 773 833 b 842 955 773 955 842 955 l 842 972 z "},"O":{"ha":1039,"x_min":0,"x_max":0,"o":"m 519 984 b 33 486 251 984 33 761 b 519 -12 33 211 251 -12 b 1006 486 788 -12 1006 211 b 519 984 1006 761 788 984 z m 560 25 b 231 461 401 11 253 206 b 479 947 209 716 320 933 b 808 511 638 961 785 766 b 560 25 830 257 719 39 z "},"P":{"ha":942,"x_min":0,"x_max":0,"o":"m 449 972 l 32 972 l 32 955 b 101 833 32 955 101 955 l 101 139 b 32 17 101 17 32 17 l 32 0 l 356 0 l 356 17 b 287 137 356 17 287 17 l 287 174 b 472 394 287 372 416 394 l 472 394 b 923 683 729 399 923 497 b 449 972 923 874 717 972 z m 472 428 b 396 416 445 428 419 424 b 324 374 368 407 344 393 b 287 327 309 361 297 345 l 287 937 l 449 937 b 726 677 608 937 726 851 b 472 428 726 512 611 428 z "},"Q":{"ha":1040,"x_min":0,"x_max":0,"o":"m 734 -122 b 629 -35 670 -122 641 -81 b 621 -1 627 -25 625 -13 b 1006 486 841 47 1006 247 b 519 984 1006 761 788 984 b 33 486 251 984 33 761 b 519 -12 33 211 251 -12 b 583 -7 541 -12 562 -10 b 589 -35 585 -17 587 -27 b 734 -156 612 -133 681 -156 b 936 -81 820 -156 884 -122 l 855 69 b 734 -122 855 -58 809 -122 z m 231 461 b 479 947 209 716 320 933 b 808 511 638 961 785 766 b 609 36 828 284 741 86 b 514 104 594 72 568 104 b 429 60 469 104 442 82 b 231 461 327 127 247 279 z m 560 25 b 458 44 525 22 490 29 b 514 75 464 60 485 75 b 573 27 546 75 563 53 b 560 25 569 26 564 25 z "},"R":{"ha":975,"x_min":0,"x_max":0,"o":"m 780 139 l 548 398 b 923 683 767 420 923 516 b 449 972 923 874 717 972 l 32 972 l 32 955 b 101 833 32 955 101 955 l 101 139 b 32 17 101 17 32 17 l 32 0 l 356 0 l 356 17 b 287 137 356 17 287 17 l 287 174 b 384 374 287 294 334 349 l 595 139 b 634 17 703 17 634 17 l 634 0 l 958 0 l 958 17 b 780 139 958 17 888 17 z m 324 374 b 287 327 309 361 297 345 l 287 937 l 449 937 b 726 677 608 937 726 851 b 472 428 726 512 611 428 b 396 416 445 428 419 424 b 324 374 368 407 344 393 z "},"S":{"ha":851,"x_min":0,"x_max":0,"o":"m 185 793 b 428 949 185 920 330 949 b 671 694 590 949 671 816 l 764 880 b 428 984 683 943 567 984 b 46 741 255 984 46 920 b 677 179 46 382 677 428 b 417 23 677 69 544 23 b 127 278 237 23 127 156 l 35 93 b 417 -12 116 29 260 -12 b 822 237 637 -12 822 58 b 185 793 822 602 185 556 z "},"T":{"ha":883,"x_min":0,"x_max":0,"o":"m 881 810 l 858 972 l 25 972 l 25 972 l 1 810 l 19 810 b 187 937 19 810 53 937 l 349 937 l 349 139 b 279 17 349 17 279 17 l 279 0 l 603 0 l 603 17 b 534 139 603 17 534 17 l 534 937 l 696 937 b 864 810 830 937 864 810 z "},"U":{"ha":910,"x_min":0,"x_max":0,"o":"m 709 972 l 709 955 b 779 833 709 955 779 955 l 779 231 b 518 23 779 168 761 23 b 281 231 304 23 281 162 l 281 833 b 350 955 281 955 350 955 l 350 972 l 26 972 l 26 955 b 96 833 26 955 96 955 l 96 231 b 501 -12 96 116 165 -12 b 813 231 813 -12 813 191 l 813 833 b 883 955 813 955 883 955 l 883 972 z "},"V":{"ha":956,"x_min":0,"x_max":0,"o":"m 790 972 l 790 955 b 809 833 790 955 860 955 l 553 221 l 297 833 b 316 955 246 955 316 955 l 316 972 l -8 972 l -8 955 b 112 833 -8 955 61 955 l 460 0 l 495 0 l 844 833 b 964 955 894 955 964 955 l 964 972 z "},"W":{"ha":1350,"x_min":0,"x_max":0,"o":"m 1184 972 l 1184 955 b 1202 833 1184 955 1253 955 l 947 221 l 691 833 b 709 955 640 955 709 955 l 709 972 l 385 972 l 385 955 b 505 833 385 955 455 955 l 657 471 l 553 221 l 297 833 b 316 955 246 955 316 955 l 316 972 l -8 972 l -8 955 b 112 833 -8 955 61 955 l 460 0 l 495 0 l 675 429 l 854 0 l 889 0 l 1237 833 b 1357 955 1288 955 1357 955 l 1357 972 z "},"X":{"ha":924,"x_min":0,"x_max":0,"o":"m 923 955 l 923 972 l 750 972 l 750 955 b 726 833 750 955 819 955 l 525 572 l 370 833 b 368 955 298 955 368 955 l 368 972 l 44 972 l 44 955 b 185 833 44 955 113 955 l 406 460 l 160 139 b -3 17 67 17 -3 17 l -3 0 l 171 0 l 171 17 b 195 139 171 17 101 17 l 421 434 l 597 139 b 599 17 669 17 599 17 l 599 0 l 923 0 l 923 17 b 782 139 923 17 854 17 l 540 546 l 760 833 b 923 955 854 955 923 955 z "},"Y":{"ha":907,"x_min":0,"x_max":0,"o":"m 743 972 l 743 955 b 745 833 743 955 812 955 l 528 444 l 312 833 b 314 955 245 955 314 955 l 314 972 l -10 972 l -10 955 b 127 833 -10 955 60 955 l 384 372 l 384 139 b 314 17 384 17 314 17 l 314 0 l 638 0 l 638 17 b 569 139 638 17 569 17 l 569 455 l 779 833 b 916 955 847 955 916 955 l 916 972 z "},"Ÿ":{"ha":907,"x_min":0,"x_max":0,"o":"m 743 972 l 743 955 b 745 833 743 955 812 955 l 528 444 l 312 833 b 314 955 245 955 314 955 l 314 972 l -10 972 l -10 955 b 127 833 -10 955 60 955 l 384 372 l 384 139 b 314 17 384 17 314 17 l 314 0 l 638 0 l 638 17 b 569 139 638 17 569 17 l 569 455 l 779 833 b 916 955 847 955 916 955 l 916 972 z "},"Z":{"ha":790,"x_min":0,"x_max":0,"o":"m 775 162 l 758 162 b 590 35 758 162 724 35 l 216 35 l 752 972 l 57 972 l 57 972 l 34 810 l 52 810 b 219 937 52 810 86 937 l 547 937 l 11 0 l 752 0 l 752 0 z "},"[":{"ha":393,"x_min":0,"x_max":0,"o":"m 331 955 l 331 972 l 146 972 b 76 851 146 972 76 972 l 76 122 b 146 0 76 0 146 0 l 331 0 l 331 17 b 262 139 331 17 262 17 l 262 833 b 331 955 262 955 331 955 z "},"\\":{"ha":601,"x_min":0,"x_max":0,"o":"m 104 972 l 69 972 l 498 0 l 532 0 z "},"]":{"ha":393,"x_min":0,"x_max":0,"o":"m 246 972 l 61 972 l 61 955 b 131 833 61 955 131 955 l 131 139 b 61 17 131 17 61 17 l 61 0 l 246 0 b 316 122 246 0 316 0 l 316 851 b 246 972 316 972 246 972 z "},"^":{"ha":393,"x_min":0,"x_max":0,"o":"m 345 725 l 208 965 b 185 965 203 974 190 974 l 47 725 b 59 707 43 717 49 707 l 76 707 b 83 709 79 707 81 707 l 189 790 b 204 790 193 793 199 793 l 309 709 b 317 707 311 707 314 707 l 334 707 b 345 725 344 707 350 717 z "},"_":{"ha":528,"x_min":0,"x_max":0,"o":"m 495 0 l 495 35 l 32 35 l 32 0 z "},"`":{"ha":399,"x_min":0,"x_max":0,"o":"m 348 752 l 256 959 b 235 972 253 967 244 972 l 66 972 b 52 933 44 972 35 946 l 313 726 b 327 721 317 723 322 721 b 348 752 343 721 354 738 z "},"a":{"ha":746,"x_min":0,"x_max":0,"o":"m 657 139 l 657 336 b 333 660 657 544 559 660 b 101 567 223 660 171 619 b 194 382 194 382 194 382 b 333 625 194 584 275 625 b 472 354 456 625 471 507 b 310 394 442 378 391 394 b 32 191 125 394 32 312 l 32 191 b 310 -12 32 69 125 -12 b 486 43 406 -12 460 10 b 541 0 506 0 541 0 l 726 0 l 726 17 b 657 139 726 17 657 17 z m 472 107 b 356 23 472 24 373 23 b 217 191 258 23 217 96 b 356 359 217 286 258 359 b 472 275 373 359 472 358 z "},"b":{"ha":806,"x_min":0,"x_max":0,"o":"m 446 660 b 278 587 364 660 310 632 l 278 972 l 244 972 b 24 880 226 937 145 880 l 24 862 b 93 741 24 862 93 862 l 93 139 b 24 17 93 17 24 17 l 24 0 l 209 0 b 273 69 209 0 256 0 b 446 -12 303 20 359 -12 b 764 324 625 -12 764 110 b 446 660 764 538 625 660 z m 411 23 b 278 185 351 23 278 58 l 278 463 b 411 625 278 590 351 625 b 568 324 527 625 568 490 b 411 23 568 158 527 23 z "},"c":{"ha":665,"x_min":0,"x_max":0,"o":"m 447 46 b 233 312 325 46 248 146 b 372 625 219 478 256 625 b 522 382 418 625 522 584 b 615 567 522 382 522 382 b 372 660 557 619 463 660 b 36 324 192 660 36 509 b 395 -12 36 139 192 -12 b 638 104 540 -12 615 69 l 638 138 b 447 46 638 138 574 46 z "},"d":{"ha":806,"x_min":0,"x_max":0,"o":"m 561 972 l 526 972 l 526 587 b 359 660 495 632 441 660 b 40 324 179 660 40 538 b 359 -12 40 110 179 -12 b 532 69 446 -12 501 20 b 596 0 548 0 596 0 l 781 0 l 781 17 b 712 139 781 17 712 17 l 712 741 b 781 862 712 862 781 862 l 781 880 b 561 972 659 880 578 937 z m 526 185 b 393 23 526 58 454 23 b 237 324 278 23 237 158 b 393 625 237 490 278 625 b 526 463 454 625 526 590 z "},"e":{"ha":679,"x_min":0,"x_max":0,"o":"m 447 46 b 285 139 377 46 322 79 b 329 280 283 202 297 247 b 638 359 380 333 481 359 b 372 660 638 567 528 660 b 37 347 200 660 49 522 b 36 324 36 340 36 332 b 395 -12 36 139 192 -12 b 638 104 540 -12 615 69 l 638 138 b 447 46 638 138 574 46 z m 255 204 b 233 312 244 236 237 272 b 231 347 232 324 232 336 l 231 347 b 360 625 225 497 268 625 b 453 377 444 625 452 529 b 427 371 444 375 435 373 b 304 304 373 356 333 334 b 260 225 283 282 268 256 b 255 204 258 219 256 211 z "},"f":{"ha":381,"x_min":0,"x_max":0,"o":"m 421 984 b 97 660 196 984 97 868 l 97 648 l 28 648 l 28 613 l 97 613 l 97 139 b 28 17 97 17 28 17 l 28 0 l 352 0 l 352 17 b 282 139 352 17 282 17 l 282 613 l 352 613 l 352 648 l 282 648 l 282 660 b 421 949 282 822 294 949 b 560 706 479 949 560 909 b 653 891 560 706 560 706 b 421 984 583 943 531 984 z "},"g":{"ha":665,"x_min":0,"x_max":0,"o":"m 353 35 b 231 97 195 35 217 80 b 325 81 261 87 292 81 b 614 370 479 81 614 211 b 325 660 614 530 479 660 b 35 370 170 660 35 530 b 195 113 35 258 102 160 b 128 6 172 96 128 57 b 313 -116 128 -75 199 -116 b 504 -203 487 -116 504 -168 b 336 -289 504 -249 458 -289 b 81 -35 145 -289 81 -156 l -11 -220 b 330 -324 72 -286 168 -324 b 660 -150 533 -324 660 -260 b 353 35 660 -29 556 35 z m 302 624 b 428 379 367 630 416 520 b 347 117 441 239 412 122 b 221 361 282 111 233 221 b 302 624 209 501 237 618 z m 568 602 b 637 671 606 602 637 633 b 568 741 637 710 606 741 b 498 671 529 741 498 710 b 568 602 498 633 529 602 z "},"h":{"ha":810,"x_min":0,"x_max":0,"o":"m 718 139 l 718 440 b 440 660 718 556 649 660 b 278 589 354 660 306 630 l 278 972 l 244 972 b 24 880 226 937 145 880 l 24 862 b 93 741 24 862 93 862 l 93 139 b 24 17 93 17 24 17 l 24 0 l 348 0 l 348 17 b 278 139 348 17 278 17 l 278 440 b 411 625 278 492 278 625 b 533 440 539 625 533 503 l 533 139 b 463 17 533 17 463 17 l 463 0 l 788 0 l 788 17 b 718 139 788 17 718 17 z "},"i":{"ha":378,"x_min":0,"x_max":0,"o":"m 284 139 l 284 648 l 249 648 b 29 556 232 613 151 556 l 29 538 b 99 417 29 538 99 538 l 99 139 b 29 17 99 17 29 17 l 29 0 l 353 0 l 353 17 b 284 139 353 17 284 17 z m 220 669 b 286 828 282 695 312 766 b 127 894 261 890 189 919 b 62 735 65 868 36 797 b 220 669 87 673 158 643 z "},"j":{"ha":350,"x_min":0,"x_max":0,"o":"m 27 556 l 27 538 b 96 417 27 538 96 538 l 96 0 b -43 -289 96 -139 85 -289 b -205 -46 -101 -289 -205 -249 b -297 -231 -205 -46 -205 -46 b -37 -324 -228 -284 -153 -324 b 281 0 183 -324 281 -208 l 281 648 l 247 648 b 27 556 229 613 148 556 z m 172 660 b 293 781 239 660 293 714 b 172 903 293 848 239 903 b 50 781 104 903 50 848 b 172 660 50 714 104 660 z "},"k":{"ha":817,"x_min":0,"x_max":0,"o":"m 604 133 l 307 382 l 482 509 b 718 631 649 631 718 631 l 718 648 l 544 648 l 544 631 b 447 509 544 631 614 631 l 278 386 l 278 972 l 244 972 b 24 880 226 937 145 880 l 24 862 b 93 741 24 862 93 862 l 93 139 b 24 17 93 17 24 17 l 24 0 l 348 0 l 348 17 b 278 139 348 17 278 17 l 278 251 l 411 139 b 487 17 556 17 487 17 l 487 0 l 811 0 l 811 17 b 604 133 811 17 744 17 z "},"l":{"ha":372,"x_min":0,"x_max":0,"o":"m 278 139 l 278 972 l 244 972 b 24 880 226 937 145 880 l 24 862 b 93 741 24 862 93 862 l 93 139 b 24 17 93 17 24 17 l 24 0 l 348 0 l 348 17 b 278 139 348 17 278 17 z "},"m":{"ha":1208,"x_min":0,"x_max":0,"o":"m 1117 139 l 1117 440 b 857 660 1117 556 1065 660 b 680 546 747 660 700 604 b 440 660 650 612 580 660 b 284 591 358 660 311 630 l 284 648 l 249 648 b 29 556 232 613 151 556 l 29 538 b 99 417 29 538 99 538 l 99 139 b 29 17 99 17 29 17 l 29 0 l 353 0 l 353 17 b 284 139 353 17 284 17 l 284 440 b 405 625 284 492 290 625 b 515 440 515 625 515 503 l 515 139 b 446 17 515 17 446 17 l 446 0 l 770 0 l 770 17 b 700 139 770 17 700 17 l 700 440 b 822 625 700 492 706 625 b 932 440 932 625 932 503 l 932 139 b 862 17 932 17 862 17 l 862 0 l 1187 0 l 1187 17 b 1117 139 1187 17 1117 17 z "},"n":{"ha":814,"x_min":0,"x_max":0,"o":"m 724 139 l 724 440 b 446 660 724 556 654 660 b 284 589 360 660 311 630 l 284 648 l 249 648 b 29 556 232 613 151 556 l 29 538 b 99 417 29 538 99 538 l 99 139 b 29 17 99 17 29 17 l 29 0 l 353 0 l 353 17 b 284 139 353 17 284 17 l 284 440 b 417 625 284 492 284 625 b 538 440 544 625 538 503 l 538 139 b 469 17 538 17 469 17 l 469 0 l 793 0 l 793 17 b 724 139 793 17 724 17 z "},"o":{"ha":744,"x_min":0,"x_max":0,"o":"m 372 660 b 36 324 192 660 36 509 b 372 -12 36 139 192 -12 b 707 324 551 -12 707 139 b 372 660 707 509 551 660 z m 398 24 b 233 312 312 17 248 146 b 346 624 219 478 259 616 b 510 336 432 631 496 502 b 398 24 525 171 484 32 z "},"p":{"ha":808,"x_min":0,"x_max":0,"o":"m 449 660 b 281 587 367 660 312 632 l 281 648 l 246 648 b 26 556 229 613 148 556 l 26 538 b 96 417 26 538 96 538 l 96 -185 b 26 -307 96 -307 26 -307 l 26 -324 l 212 -324 b 281 -203 212 -324 281 -324 l 281 61 b 449 -12 312 16 367 -12 b 767 324 628 -12 767 110 b 449 660 767 538 628 660 z m 414 23 b 281 185 353 23 281 58 l 281 463 b 414 625 281 590 353 625 b 570 324 530 625 570 490 b 414 23 570 158 530 23 z "},"q":{"ha":808,"x_min":0,"x_max":0,"o":"m 561 648 l 526 648 l 526 587 b 359 660 495 632 441 660 b 40 324 179 660 40 538 b 359 -12 40 110 179 -12 b 526 61 441 -12 495 16 l 526 -203 b 596 -324 526 -324 596 -324 l 781 -324 l 781 -307 b 712 -185 781 -307 712 -307 l 712 417 b 781 538 712 538 781 538 l 781 556 b 561 648 659 556 578 613 z m 526 185 b 393 23 526 58 454 23 b 237 324 278 23 237 158 b 393 625 237 490 278 625 b 526 463 454 625 526 590 z "},"r":{"ha":671,"x_min":0,"x_max":0,"o":"m 428 660 b 284 586 354 660 310 628 l 284 648 l 249 648 b 29 556 232 613 151 556 l 29 538 b 99 417 29 538 99 538 l 99 139 b 29 17 99 17 29 17 l 29 0 l 353 0 l 353 17 b 284 139 353 17 284 17 l 284 440 b 423 625 284 491 295 625 b 562 382 481 625 562 584 b 654 567 562 382 562 382 b 428 660 585 625 521 660 z "},"s":{"ha":653,"x_min":0,"x_max":0,"o":"m 165 538 b 315 625 165 590 228 625 b 489 382 385 625 489 584 b 581 567 489 382 489 382 b 327 660 524 619 437 660 b 49 486 182 660 49 602 b 489 104 49 231 489 266 b 338 23 489 52 425 23 b 130 266 240 23 130 64 b 37 81 130 266 130 266 b 333 -12 101 29 182 -12 b 616 168 512 -12 616 46 b 165 538 616 405 165 405 z "},"t":{"ha":393,"x_min":0,"x_max":0,"o":"m 278 156 l 278 613 l 371 613 l 371 648 l 278 648 l 278 810 l 244 810 b 244 810 244 810 244 810 b 24 648 226 749 145 648 l 24 648 l 24 631 b 93 509 24 631 93 631 l 93 122 b 163 0 93 0 163 0 l 371 0 l 371 17 b 278 156 371 17 278 17 z "},"u":{"ha":813,"x_min":0,"x_max":0,"o":"m 718 139 l 718 648 l 683 648 b 463 556 666 613 585 556 l 463 538 b 533 417 463 538 533 538 l 533 208 b 400 23 533 156 533 23 b 278 208 272 23 278 145 l 278 648 l 244 648 b 24 556 226 613 145 556 l 24 538 b 93 417 24 538 93 538 l 93 208 b 371 -12 93 93 163 -12 b 539 68 463 -12 513 23 b 602 0 555 0 602 0 l 787 0 l 787 17 b 718 139 787 17 718 17 z "},"v":{"ha":819,"x_min":0,"x_max":0,"o":"m 641 648 l 641 631 b 649 509 641 631 710 631 l 484 184 l 320 509 b 328 631 259 631 328 631 l 328 648 l 4 648 l 4 631 b 135 509 4 631 74 631 l 392 0 l 427 0 l 684 509 b 814 631 745 631 814 631 l 814 648 z "},"w":{"ha":1213,"x_min":0,"x_max":0,"o":"m 1034 631 b 1042 509 1034 631 1104 631 l 878 184 l 714 509 b 722 631 652 631 722 631 l 722 648 l 398 648 l 398 631 b 528 509 398 631 467 631 l 589 390 l 484 183 l 320 509 b 328 631 259 631 328 631 l 328 648 l 4 648 l 4 631 b 135 509 4 631 74 631 l 392 0 l 427 0 l 606 356 l 785 0 l 820 0 l 1077 509 b 1208 631 1138 631 1208 631 l 1208 648 l 1034 648 z "},"x":{"ha":785,"x_min":0,"x_max":0,"o":"m 772 631 l 772 648 l 599 648 l 599 631 b 558 509 599 631 668 631 l 458 399 l 387 509 b 379 631 309 631 379 631 l 379 648 l 55 648 l 55 631 b 202 509 55 631 124 631 l 336 301 l 188 139 b 8 17 78 17 8 17 l 8 0 l 182 0 l 182 17 b 223 139 182 17 112 17 l 350 279 l 440 139 b 448 17 518 17 448 17 l 448 0 l 772 0 l 772 17 b 625 139 772 17 703 17 l 472 377 l 592 509 b 772 631 703 631 772 631 z "},"y":{"ha":818,"x_min":0,"x_max":0,"o":"m 639 631 b 657 509 639 631 709 631 l 519 185 l 329 509 b 327 631 257 631 327 631 l 327 648 l 3 648 l 3 631 b 144 509 3 631 72 631 l 441 2 l 362 -185 b 234 -289 321 -272 275 -289 b 95 -46 182 -289 95 -243 b 3 -231 95 -46 95 -46 b 228 -324 72 -284 136 -324 b 396 -185 304 -324 356 -289 l 692 509 b 813 631 744 631 813 631 l 813 648 l 639 648 z "},"z":{"ha":689,"x_min":0,"x_max":0,"o":"m 646 162 b 478 35 646 162 612 35 l 225 35 l 652 648 l 85 648 l 85 648 l 62 486 l 79 486 b 247 613 79 486 113 613 l 442 613 l 15 0 l 640 0 l 640 0 l 663 162 z "},"{":{"ha":436,"x_min":0,"x_max":0,"o":"m 305 608 l 305 833 b 374 955 305 955 374 955 l 374 972 l 189 972 b 119 851 189 972 119 972 l 119 608 b 50 486 119 486 50 486 b 119 365 50 486 119 486 l 119 122 b 189 0 119 0 189 0 l 374 0 l 374 17 b 305 139 374 17 305 17 l 305 365 b 235 486 305 486 235 486 b 305 608 235 486 305 486 z "},"|":{"ha":189,"x_min":0,"x_max":0,"o":"m 111 0 l 111 972 l 76 972 l 76 0 z "},"}":{"ha":436,"x_min":0,"x_max":0,"o":"m 316 608 l 316 851 b 246 972 316 972 246 972 l 61 972 l 61 955 b 131 833 61 955 131 955 l 131 608 b 200 486 131 486 200 486 b 131 365 200 486 131 486 l 131 139 b 61 17 131 17 61 17 l 61 0 l 246 0 b 316 122 246 0 316 0 l 316 365 b 385 486 316 486 385 486 b 316 608 385 486 316 486 z "},"~":{"ha":594,"x_min":0,"x_max":0,"o":"m 356 515 b 43 405 79 591 56 436 b 280 411 43 405 124 451 b 552 521 461 364 518 417 b 356 515 552 521 523 469 z "}," ":{"ha":508,"x_min":0,"x_max":0,"o":""},"¡":{"ha":371,"x_min":0,"x_max":0,"o":"m 168 712 l 93 0 l 278 0 l 203 712 z m 185 729 b 307 851 253 729 307 784 b 185 972 307 918 253 972 b 64 851 118 972 64 918 b 185 729 64 784 118 729 z "},"¢":{"ha":846,"x_min":0,"x_max":0,"o":"m 554 97 b 495 103 534 97 514 99 l 495 895 b 677 670 606 887 677 774 l 759 834 b 495 926 687 892 595 925 l 495 972 l 460 972 l 460 925 b 61 486 237 908 61 718 b 460 47 61 254 234 64 l 460 0 l 495 0 l 495 46 b 790 179 699 47 775 154 l 790 210 b 554 97 790 210 718 97 z m 460 112 b 237 464 336 154 253 282 b 460 894 218 678 313 876 z "},"£":{"ha":863,"x_min":0,"x_max":0,"o":"m 808 162 b 640 35 808 162 774 35 l 246 35 b 316 156 246 35 316 35 l 316 469 l 524 469 l 524 503 l 316 503 l 316 660 b 455 949 316 822 327 949 b 594 706 512 949 594 909 b 686 891 594 706 594 706 b 455 984 617 943 565 984 b 131 660 229 984 131 868 l 131 503 l 61 503 l 61 469 l 131 469 l 131 139 b 61 17 131 17 61 17 l 61 0 l 802 0 l 825 162 z "},"¥":{"ha":1065,"x_min":0,"x_max":0,"o":"m 822 972 l 822 955 b 824 833 822 955 891 955 l 615 457 l 601 457 l 392 833 b 394 955 324 955 394 955 l 394 972 l 69 972 l 69 955 b 206 833 69 955 139 955 l 415 457 l 324 457 l 324 422 l 435 422 l 463 372 l 463 353 l 324 353 l 324 318 l 463 318 l 463 139 b 394 17 463 17 394 17 l 394 0 l 718 0 l 718 17 b 648 139 718 17 648 17 l 648 318 l 787 318 l 787 353 l 648 353 l 648 422 l 787 422 l 787 457 l 649 457 l 858 833 b 995 955 926 955 995 955 l 995 972 z "},"§":{"ha":979,"x_min":0,"x_max":0,"o":"m 404 822 b 601 954 404 930 521 954 b 797 738 732 954 797 841 l 872 895 b 601 984 807 949 713 984 b 298 827 477 984 331 942 b 72 627 182 809 72 750 b 582 151 72 322 582 362 b 372 18 582 57 475 18 b 137 234 226 18 137 131 l 63 77 b 372 -12 128 23 245 -12 b 692 146 527 -12 661 33 b 919 350 822 166 919 228 b 404 822 919 660 404 620 z m 699 184 b 699 200 699 189 699 194 b 184 671 699 509 184 470 b 292 793 184 742 235 777 b 291 777 292 788 291 783 b 802 301 291 473 802 512 b 699 184 802 241 758 204 z "},"©":{"ha":910,"x_min":0,"x_max":0,"o":"m 455 880 b 61 486 237 880 61 703 b 455 93 61 269 237 93 b 848 486 672 93 848 269 b 455 880 848 703 672 880 z m 455 122 b 96 486 256 122 96 285 b 455 851 96 687 256 851 b 813 486 653 851 813 687 b 455 122 813 285 653 122 z m 529 237 b 340 475 421 237 353 327 b 462 756 327 624 360 756 b 595 538 503 756 595 720 b 677 704 595 538 595 538 b 462 787 626 751 542 787 b 165 486 303 787 165 652 b 483 185 165 320 303 185 b 698 289 611 185 677 258 l 698 320 b 529 237 698 320 641 237 z "},"­":{"ha":0,"x_min":0,"x_max":0,"o":""},"®":{"ha":910,"x_min":0,"x_max":0,"o":"m 610 397 l 488 533 b 685 682 603 544 685 594 b 436 833 685 781 576 833 l 436 833 l 217 833 l 217 824 b 254 761 217 824 254 824 l 254 397 b 217 333 254 333 217 333 l 217 324 l 387 324 l 387 333 b 351 396 387 333 351 333 l 351 415 b 402 520 351 478 376 507 l 513 397 b 533 333 570 333 533 333 l 533 324 l 703 324 l 703 333 b 610 397 703 333 667 333 z m 408 542 b 371 520 394 537 381 530 b 351 495 363 513 356 505 l 351 815 l 436 815 b 582 679 520 815 582 770 b 448 548 582 592 521 548 b 408 542 434 548 421 546 z m 455 972 b 61 579 237 972 61 796 b 455 185 61 361 237 185 b 848 579 672 185 848 361 b 455 972 848 796 672 972 z m 455 214 b 96 579 256 214 96 377 b 455 943 96 780 256 943 b 813 579 653 943 813 780 b 455 214 813 377 653 214 z "},"±":{"ha":564,"x_min":0,"x_max":0,"o":"m 299 538 l 299 752 l 264 752 l 264 538 l 50 538 l 50 503 l 264 503 l 264 289 l 299 289 l 299 503 l 513 503 l 513 538 z m 513 220 l 513 255 l 50 255 l 50 220 z "},"¿":{"ha":792,"x_min":0,"x_max":0,"o":"m 410 729 b 532 851 477 729 532 784 b 410 972 532 918 477 972 b 289 851 343 972 289 918 b 410 729 289 784 343 729 z m 665 278 b 410 23 665 156 584 23 b 190 191 312 23 190 64 b 428 712 190 428 428 312 l 393 712 b 51 226 393 440 51 498 b 410 -12 51 46 237 -12 b 757 93 549 -12 676 29 z "},"À":{"ha":956,"x_min":0,"x_max":0,"o":"m 844 139 l 495 972 l 460 972 l 112 139 b -8 17 61 17 -8 17 l -8 0 l 165 0 l 165 17 b 133 101 165 17 111 17 b 262 227 159 148 205 193 b 588 307 349 279 459 306 l 658 139 b 640 17 709 17 640 17 l 640 0 l 964 0 l 964 17 b 844 139 964 17 894 17 z m 392 318 b 244 257 337 304 288 283 b 175 207 219 242 196 225 l 403 751 l 574 341 b 392 318 509 340 448 332 z m 332 1136 l 470 1021 b 477 1019 472 1019 475 1019 b 488 1036 486 1019 492 1028 l 440 1150 b 429 1157 438 1154 434 1157 l 339 1157 b 332 1136 328 1157 323 1143 z "},"Á":{"ha":956,"x_min":0,"x_max":0,"o":"m 844 139 l 495 972 l 460 972 l 112 139 b -8 17 61 17 -8 17 l -8 0 l 165 0 l 165 17 b 133 101 165 17 111 17 b 262 227 159 148 205 193 b 588 307 349 279 459 306 l 658 139 b 640 17 709 17 640 17 l 640 0 l 964 0 l 964 17 b 844 139 964 17 894 17 z m 392 318 b 244 257 337 304 288 283 b 175 207 219 242 196 225 l 403 751 l 574 341 b 392 318 509 340 448 332 z m 478 1019 b 486 1021 481 1019 484 1019 l 624 1136 b 616 1157 633 1143 628 1157 l 527 1157 b 516 1150 522 1157 518 1154 l 467 1036 b 478 1019 464 1028 470 1019 z "},"Â":{"ha":956,"x_min":0,"x_max":0,"o":"m 844 139 l 495 972 l 460 972 l 112 139 b -8 17 61 17 -8 17 l -8 0 l 165 0 l 165 17 b 133 101 165 17 111 17 b 262 227 159 148 205 193 b 588 307 349 279 459 306 l 658 139 b 640 17 709 17 640 17 l 640 0 l 964 0 l 964 17 b 844 139 964 17 894 17 z m 392 318 b 244 257 337 304 288 283 b 175 207 219 242 196 225 l 403 751 l 574 341 b 392 318 509 340 448 332 z m 409 1019 l 418 1019 b 421 1020 419 1019 420 1019 l 474 1062 b 482 1062 476 1064 479 1064 l 534 1020 b 538 1019 535 1019 537 1019 l 547 1019 b 552 1028 551 1019 555 1024 l 483 1154 b 472 1154 481 1159 475 1159 l 403 1028 b 409 1019 401 1024 404 1019 z "},"Ã":{"ha":956,"x_min":0,"x_max":0,"o":"m 844 139 l 495 972 l 460 972 l 112 139 b -8 17 61 17 -8 17 l -8 0 l 165 0 l 165 17 b 133 101 165 17 111 17 b 262 227 159 148 205 193 b 588 307 349 279 459 306 l 658 139 b 640 17 709 17 640 17 l 640 0 l 964 0 l 964 17 b 844 139 964 17 894 17 z m 392 318 b 244 257 337 304 288 283 b 175 207 219 242 196 225 l 403 751 l 574 341 b 392 318 509 340 448 332 z m 461 1027 b 594 1081 549 1004 577 1030 b 498 1079 594 1081 580 1056 b 345 1024 362 1116 351 1040 b 461 1027 345 1024 384 1047 z "},"Ä":{"ha":956,"x_min":0,"x_max":0,"o":"m 844 139 l 495 972 l 460 972 l 112 139 b -8 17 61 17 -8 17 l -8 0 l 165 0 l 165 17 b 133 101 165 17 111 17 b 262 227 159 148 205 193 b 588 307 349 279 459 306 l 658 139 b 640 17 709 17 640 17 l 640 0 l 964 0 l 964 17 b 844 139 964 17 894 17 z m 392 318 b 244 257 337 304 288 283 b 175 207 219 242 196 225 l 403 751 l 574 341 b 392 318 509 340 448 332 z m 423 1019 b 472 1068 450 1019 472 1040 b 423 1117 472 1095 450 1117 b 374 1068 396 1117 374 1095 b 423 1019 374 1040 396 1019 z m 533 1019 b 582 1068 560 1019 582 1040 b 533 1117 582 1095 560 1117 b 484 1068 506 1117 484 1095 b 533 1019 484 1040 506 1019 z "},"Å":{"ha":956,"x_min":0,"x_max":0,"o":"m 844 139 l 495 972 l 460 972 l 112 139 b -8 17 61 17 -8 17 l -8 0 l 165 0 l 165 17 b 133 101 165 17 111 17 b 262 227 159 148 205 193 b 588 307 349 279 459 306 l 658 139 b 640 17 709 17 640 17 l 640 0 l 964 0 l 964 17 b 844 139 964 17 894 17 z m 392 318 b 244 257 337 304 288 283 b 175 207 219 242 196 225 l 403 751 l 574 341 b 392 318 509 340 448 332 z m 478 1001 b 547 1071 516 1001 547 1032 b 478 1140 547 1109 516 1140 b 408 1071 439 1140 408 1109 b 478 1001 408 1032 439 1001 z m 478 1096 b 503 1071 492 1096 503 1085 b 478 1045 503 1057 492 1045 b 453 1071 464 1045 453 1057 b 478 1096 453 1085 464 1096 z "},"Æ":{"ha":1425,"x_min":0,"x_max":0,"o":"m 1386 162 b 1219 35 1386 162 1352 35 l 894 35 l 894 255 b 1033 483 894 378 960 448 b 1155 446 1144 535 1155 446 l 1172 446 l 1172 619 l 1155 619 b 1062 532 1155 619 1152 562 l 1062 532 b 971 486 1028 521 998 505 b 894 399 939 462 913 433 l 894 937 l 1195 937 b 1363 810 1329 937 1363 810 l 1381 810 l 1357 972 l 640 972 l 640 955 b 709 833 640 955 709 955 l 709 460 l 495 972 l 460 972 l 112 139 b -8 17 61 17 -8 17 l -8 0 l 165 0 l 165 17 b 133 101 165 17 111 17 b 262 227 159 148 205 193 b 588 307 349 279 459 306 l 658 139 b 640 17 708 21 644 17 b 640 17 640 17 640 17 b 640 17 640 17 640 17 l 640 0 l 1381 0 l 1404 162 l 1386 162 z m 392 318 b 244 257 337 304 288 283 b 175 207 219 242 196 225 l 403 751 l 574 341 b 392 318 509 340 448 332 z "},"Ç":{"ha":872,"x_min":0,"x_max":0,"o":"m 589 46 b 231 461 392 46 253 206 b 508 949 209 716 328 949 b 728 694 641 949 728 816 l 820 880 b 519 984 738 946 633 984 b 33 486 251 984 33 761 b 505 -11 33 216 240 -4 l 505 -45 b 515 -55 505 -50 510 -55 l 536 -55 b 541 -53 538 -55 539 -54 b 579 -67 549 -49 569 -46 b 584 -94 583 -73 584 -83 b 547 -136 584 -120 572 -136 b 547 -136 547 -136 547 -136 b 547 -136 547 -136 547 -136 b 510 -116 531 -136 514 -124 b 492 -116 507 -109 496 -109 l 486 -128 b 490 -141 483 -133 485 -138 b 549 -156 506 -149 523 -156 l 549 -156 b 629 -94 585 -156 629 -141 b 561 -32 629 -46 596 -32 l 561 -32 b 549 -33 556 -32 553 -33 b 538 -23 543 -34 538 -29 l 538 -11 b 855 139 755 -5 838 111 l 855 174 b 589 46 855 174 774 46 z "},"È":{"ha":817,"x_min":0,"x_max":0,"o":"m 778 162 b 611 35 778 162 744 35 l 287 35 l 287 255 b 425 483 287 378 352 448 b 547 446 536 535 547 446 l 564 446 l 564 619 l 547 619 b 454 532 547 619 544 562 l 454 532 b 363 486 420 521 390 505 b 287 399 331 462 305 433 l 287 937 l 587 937 b 755 810 721 937 755 810 l 773 810 l 750 972 l 32 972 l 32 955 b 101 833 32 955 101 955 l 101 139 b 32 17 101 17 32 17 l 32 0 l 773 0 l 796 162 z m 285 1136 l 423 1021 b 431 1019 425 1019 428 1019 b 442 1036 439 1019 445 1028 l 393 1150 b 382 1157 391 1154 387 1157 l 293 1157 b 285 1136 282 1157 276 1143 z "},"É":{"ha":817,"x_min":0,"x_max":0,"o":"m 778 162 b 611 35 778 162 744 35 l 287 35 l 287 255 b 425 483 287 378 352 448 b 547 446 536 535 547 446 l 564 446 l 564 619 l 547 619 b 454 532 547 619 544 562 l 454 532 b 363 486 420 521 390 505 b 287 399 331 462 305 433 l 287 937 l 587 937 b 755 810 721 937 755 810 l 773 810 l 750 972 l 32 972 l 32 955 b 101 833 32 955 101 955 l 101 139 b 32 17 101 17 32 17 l 32 0 l 773 0 l 796 162 z m 432 1019 b 439 1021 435 1019 437 1019 l 577 1136 b 570 1157 586 1143 581 1157 l 480 1157 b 469 1150 475 1157 471 1154 l 421 1036 b 432 1019 417 1028 423 1019 z "},"Ê":{"ha":817,"x_min":0,"x_max":0,"o":"m 778 162 b 611 35 778 162 744 35 l 287 35 l 287 255 b 425 483 287 378 352 448 b 547 446 536 535 547 446 l 564 446 l 564 619 l 547 619 b 454 532 547 619 544 562 l 454 532 b 363 486 420 521 390 505 b 287 399 331 462 305 433 l 287 937 l 587 937 b 755 810 721 937 755 810 l 773 810 l 750 972 l 32 972 l 32 955 b 101 833 32 955 101 955 l 101 139 b 32 17 101 17 32 17 l 32 0 l 773 0 l 796 162 z m 357 1019 l 365 1019 b 369 1020 367 1019 368 1019 l 422 1062 b 429 1062 424 1064 427 1064 l 482 1020 b 486 1019 483 1019 484 1019 l 494 1019 b 500 1028 499 1019 502 1024 l 431 1154 b 420 1154 429 1159 422 1159 l 351 1028 b 357 1019 349 1024 352 1019 z "},"Ë":{"ha":817,"x_min":0,"x_max":0,"o":"m 778 162 b 611 35 778 162 744 35 l 287 35 l 287 255 b 425 483 287 378 352 448 b 547 446 536 535 547 446 l 564 446 l 564 619 l 547 619 b 454 532 547 619 544 562 l 454 532 b 363 486 420 521 390 505 b 287 399 331 462 305 433 l 287 937 l 587 937 b 755 810 721 937 755 810 l 773 810 l 750 972 l 32 972 l 32 955 b 101 833 32 955 101 955 l 101 139 b 32 17 101 17 32 17 l 32 0 l 773 0 l 796 162 z m 376 1019 b 425 1068 403 1019 425 1040 b 376 1117 425 1095 403 1117 b 327 1068 349 1117 327 1095 b 376 1019 327 1040 349 1019 z m 486 1019 b 535 1068 513 1019 535 1040 b 486 1117 535 1095 513 1117 b 437 1068 459 1117 437 1095 b 486 1019 437 1040 459 1019 z "},"Ì":{"ha":389,"x_min":0,"x_max":0,"o":"m 356 955 l 356 972 l 32 972 l 32 955 b 101 833 32 955 101 955 l 101 139 b 32 17 101 17 32 17 l 32 0 l 356 0 l 356 17 b 287 139 356 17 287 17 l 287 833 b 356 955 287 955 356 955 z m 48 1136 l 186 1021 b 193 1019 188 1019 191 1019 b 205 1036 202 1019 208 1028 l 156 1150 b 145 1157 154 1154 150 1157 l 56 1157 b 48 1136 44 1157 39 1143 z "},"Í":{"ha":389,"x_min":0,"x_max":0,"o":"m 356 955 l 356 972 l 32 972 l 32 955 b 101 833 32 955 101 955 l 101 139 b 32 17 101 17 32 17 l 32 0 l 356 0 l 356 17 b 287 139 356 17 287 17 l 287 833 b 356 955 287 955 356 955 z m 194 1019 b 202 1021 197 1019 200 1019 l 340 1136 b 332 1157 349 1143 344 1157 l 243 1157 b 232 1150 238 1157 234 1154 l 183 1036 b 194 1019 180 1028 186 1019 z "},"Î":{"ha":389,"x_min":0,"x_max":0,"o":"m 356 955 l 356 972 l 32 972 l 32 955 b 101 833 32 955 101 955 l 101 139 b 32 17 101 17 32 17 l 32 0 l 356 0 l 356 17 b 287 139 356 17 287 17 l 287 833 b 356 955 287 955 356 955 z m 125 1019 l 134 1019 b 138 1020 135 1019 136 1019 l 190 1062 b 198 1062 192 1064 195 1064 l 250 1020 b 254 1019 252 1019 253 1019 l 263 1019 b 268 1028 268 1019 271 1024 l 200 1154 b 188 1154 197 1159 191 1159 l 120 1028 b 125 1019 117 1024 120 1019 z "},"Ï":{"ha":389,"x_min":0,"x_max":0,"o":"m 356 955 l 356 972 l 32 972 l 32 955 b 101 833 32 955 101 955 l 101 139 b 32 17 101 17 32 17 l 32 0 l 356 0 l 356 17 b 287 139 356 17 287 17 l 287 833 b 356 955 287 955 356 955 z m 139 1019 b 188 1068 166 1019 188 1040 b 139 1117 188 1095 166 1117 b 90 1068 112 1117 90 1095 b 139 1019 90 1040 112 1019 z m 249 1019 b 298 1068 276 1019 298 1040 b 249 1117 298 1095 276 1117 b 200 1068 222 1117 200 1095 b 249 1019 200 1040 222 1019 z "},"Ð":{"ha":982,"x_min":0,"x_max":0,"o":"m 461 972 l 461 972 l 461 972 l 44 972 l 44 955 b 114 833 44 955 114 955 l 114 579 l 44 579 l 44 394 l 114 394 l 114 139 b 44 17 114 17 44 17 l 44 0 l 461 0 b 947 486 730 0 947 218 b 461 972 947 755 730 972 z m 461 35 l 299 35 l 299 394 l 507 394 l 507 579 l 299 579 l 299 937 l 461 937 b 750 486 621 937 750 736 b 461 35 750 236 621 35 z "},"Ñ":{"ha":872,"x_min":0,"x_max":0,"o":"m 669 972 l 669 955 b 738 833 669 955 738 955 l 738 253 l 211 972 l 32 972 l 32 955 b 101 833 32 955 101 955 l 101 139 b 32 17 101 17 32 17 l 32 0 l 206 0 l 206 17 b 136 139 206 17 136 17 l 136 821 l 738 0 l 773 0 l 773 833 b 842 955 773 955 842 955 l 842 972 z m 426 1027 b 559 1081 514 1004 542 1030 b 463 1079 559 1081 545 1056 b 310 1024 327 1116 316 1040 b 426 1027 310 1024 349 1047 z "},"Ò":{"ha":1039,"x_min":0,"x_max":0,"o":"m 519 984 b 33 486 251 984 33 761 b 519 -12 33 211 251 -12 b 1006 486 788 -12 1006 211 b 519 984 1006 761 788 984 z m 560 25 b 231 461 401 11 253 206 b 479 947 209 716 320 933 b 808 511 638 961 785 766 b 560 25 830 257 719 39 z m 373 1136 l 511 1021 b 519 1019 513 1019 516 1019 b 530 1036 528 1019 533 1028 l 482 1150 b 470 1157 480 1154 475 1157 l 381 1157 b 373 1136 370 1157 365 1143 z "},"Ó":{"ha":1039,"x_min":0,"x_max":0,"o":"m 519 984 b 33 486 251 984 33 761 b 519 -12 33 211 251 -12 b 1006 486 788 -12 1006 211 b 519 984 1006 761 788 984 z m 560 25 b 231 461 401 11 253 206 b 479 947 209 716 320 933 b 808 511 638 961 785 766 b 560 25 830 257 719 39 z m 520 1019 b 528 1021 523 1019 525 1019 l 665 1136 b 658 1157 674 1143 669 1157 l 568 1157 b 557 1150 564 1157 559 1154 l 509 1036 b 520 1019 505 1028 511 1019 z "},"Ô":{"ha":1040,"x_min":0,"x_max":0,"o":"m 519 984 b 33 486 251 984 33 761 b 519 -12 33 211 251 -12 b 1006 486 788 -12 1006 211 b 519 984 1006 761 788 984 z m 560 25 b 231 461 401 11 253 206 b 479 947 209 716 320 933 b 808 511 638 961 785 766 b 560 25 830 257 719 39 z m 451 1019 l 459 1019 b 463 1020 461 1019 462 1019 l 516 1062 b 523 1062 518 1064 521 1064 l 576 1020 b 580 1019 577 1019 578 1019 l 588 1019 b 594 1028 593 1019 596 1024 l 525 1154 b 514 1154 523 1159 516 1159 l 445 1028 b 451 1019 443 1024 446 1019 z "},"Õ":{"ha":1039,"x_min":0,"x_max":0,"o":"m 519 984 b 33 486 251 984 33 761 b 519 -12 33 211 251 -12 b 1006 486 788 -12 1006 211 b 519 984 1006 761 788 984 z m 560 25 b 231 461 401 11 253 206 b 479 947 209 716 320 933 b 808 511 638 961 785 766 b 560 25 830 257 719 39 z m 508 1027 b 641 1081 596 1004 624 1030 b 545 1079 641 1081 627 1056 b 392 1024 409 1116 398 1040 b 508 1027 392 1024 431 1047 z "},"Ö":{"ha":1040,"x_min":0,"x_max":0,"o":"m 519 984 b 33 486 251 984 33 761 b 519 -12 33 211 251 -12 b 1006 486 788 -12 1006 211 b 519 984 1006 761 788 984 z m 560 25 b 231 461 401 11 253 206 b 479 947 209 716 320 933 b 808 511 638 961 785 766 b 560 25 830 257 719 39 z m 464 1019 b 513 1068 491 1019 513 1040 b 464 1117 513 1095 491 1117 b 415 1068 437 1117 415 1095 b 464 1019 415 1040 437 1019 z m 575 1019 b 624 1068 602 1019 624 1040 b 575 1117 624 1095 602 1117 b 526 1068 548 1117 526 1095 b 575 1019 526 1040 548 1019 z "},"×":{"ha":453,"x_min":0,"x_max":0,"o":"m 402 635 l 377 660 l 226 508 l 75 660 l 50 635 l 201 484 l 50 332 l 75 308 l 226 459 l 377 308 l 402 332 l 251 484 z "},"Ø":{"ha":1044,"x_min":0,"x_max":0,"o":"m 835 867 l 916 972 l 881 972 l 813 885 b 522 984 732 947 631 984 b 36 486 254 984 36 761 b 210 105 36 333 104 196 l 129 0 l 163 0 l 231 87 b 522 -12 312 25 413 -12 b 1008 486 791 -12 1008 211 b 835 867 1008 639 941 776 z m 234 461 b 482 947 212 716 323 933 b 731 779 577 956 669 889 l 299 220 b 234 461 265 289 242 371 z m 563 25 b 313 194 467 17 376 84 l 745 752 b 810 511 779 684 803 601 b 563 25 833 257 722 39 z "},"Ù":{"ha":910,"x_min":0,"x_max":0,"o":"m 709 972 l 709 955 b 779 833 709 955 779 955 l 779 231 b 518 23 779 168 761 23 b 281 231 304 23 281 162 l 281 833 b 350 955 281 955 350 955 l 350 972 l 26 972 l 26 955 b 96 833 26 955 96 955 l 96 231 b 501 -12 96 116 165 -12 b 813 231 813 -12 813 191 l 813 833 b 883 955 813 955 883 955 l 883 972 z m 384 1136 l 522 1021 b 529 1019 524 1019 527 1019 b 540 1036 538 1019 544 1028 l 492 1150 b 481 1157 490 1154 486 1157 l 391 1157 b 384 1136 380 1157 375 1143 z "},"Ú":{"ha":910,"x_min":0,"x_max":0,"o":"m 709 972 l 709 955 b 779 833 709 955 779 955 l 779 231 b 518 23 779 168 761 23 b 281 231 304 23 281 162 l 281 833 b 350 955 281 955 350 955 l 350 972 l 26 972 l 26 955 b 96 833 26 955 96 955 l 96 231 b 501 -12 96 116 165 -12 b 813 231 813 -12 813 191 l 813 833 b 883 955 813 955 883 955 l 883 972 z m 530 1019 b 538 1021 533 1019 536 1019 l 676 1136 b 668 1157 685 1143 680 1157 l 579 1157 b 568 1150 574 1157 570 1154 l 519 1036 b 530 1019 516 1028 522 1019 z "},"Û":{"ha":910,"x_min":0,"x_max":0,"o":"m 709 972 l 709 955 b 779 833 709 955 779 955 l 779 231 b 518 23 779 168 761 23 b 281 231 304 23 281 162 l 281 833 b 350 955 281 955 350 955 l 350 972 l 26 972 l 26 955 b 96 833 26 955 96 955 l 96 231 b 501 -12 96 116 165 -12 b 813 231 813 -12 813 191 l 813 833 b 883 955 813 955 883 955 l 883 972 z m 467 1019 l 475 1019 b 479 1020 477 1019 478 1019 l 532 1062 b 539 1062 534 1064 537 1064 l 592 1020 b 596 1019 593 1019 594 1019 l 604 1019 b 610 1028 609 1019 612 1024 l 541 1154 b 530 1154 539 1159 532 1159 l 461 1028 b 467 1019 459 1024 462 1019 z "},"Ü":{"ha":910,"x_min":0,"x_max":0,"o":"m 709 972 l 709 955 b 779 833 709 955 779 955 l 779 231 b 518 23 779 168 761 23 b 281 231 304 23 281 162 l 281 833 b 350 955 281 955 350 955 l 350 972 l 26 972 l 26 955 b 96 833 26 955 96 955 l 96 231 b 501 -12 96 116 165 -12 b 813 231 813 -12 813 191 l 813 833 b 883 955 813 955 883 955 l 883 972 z m 475 1019 b 524 1068 502 1019 524 1040 b 475 1117 524 1095 502 1117 b 426 1068 448 1117 426 1095 b 475 1019 426 1040 448 1019 z m 585 1019 b 634 1068 612 1019 634 1040 b 585 1117 634 1095 612 1117 b 536 1068 558 1117 536 1095 b 585 1019 536 1040 558 1019 z "},"Ý":{"ha":907,"x_min":0,"x_max":0,"o":"m 743 972 l 743 955 b 745 833 743 955 812 955 l 528 444 l 312 833 b 314 955 245 955 314 955 l 314 972 l -10 972 l -10 955 b 127 833 -10 955 60 955 l 384 372 l 384 139 b 314 17 384 17 314 17 l 314 0 l 638 0 l 638 17 b 569 139 638 17 569 17 l 569 455 l 779 833 b 916 955 847 955 916 955 l 916 972 z m 512 1019 b 519 1021 514 1019 517 1019 l 657 1136 b 649 1157 666 1143 661 1157 l 560 1157 b 549 1150 555 1157 551 1154 l 501 1036 b 512 1019 497 1028 503 1019 z "},"Þ":{"ha":942,"x_min":0,"x_max":0,"o":"m 449 775 l 449 775 l 287 775 l 287 835 b 356 955 287 955 356 955 l 356 972 l 32 972 l 32 955 b 101 833 32 955 101 955 l 101 139 b 32 17 101 17 32 17 l 32 0 l 356 0 l 356 17 b 287 137 356 17 287 17 l 287 197 l 472 197 l 472 197 l 472 197 b 923 486 729 202 923 300 b 449 775 923 677 717 775 z m 472 231 l 287 231 l 287 741 l 449 741 b 726 480 608 741 726 654 b 472 231 726 315 611 231 z "},"ß":{"ha":957,"x_min":0,"x_max":0,"o":"m 616 563 b 845 758 753 591 845 652 b 487 972 845 972 487 972 b 93 648 215 972 93 851 l 93 648 l 93 139 b 24 17 93 17 24 17 l 24 0 l 209 0 b 278 122 209 0 278 0 l 278 648 l 278 648 b 487 937 278 828 325 937 b 672 758 579 937 672 891 b 463 579 672 642 556 579 l 463 544 b 730 295 602 544 730 460 b 440 35 730 122 600 35 l 440 0 b 926 289 709 0 926 98 b 616 563 926 436 798 528 z "},"à":{"ha":746,"x_min":0,"x_max":0,"o":"m 204 811 l 342 697 b 350 694 344 695 347 694 b 361 712 358 694 364 704 l 312 826 b 301 833 310 830 306 833 l 212 833 b 204 811 200 833 195 819 z m 657 139 l 657 336 b 333 660 657 544 559 660 b 101 567 223 660 171 619 b 194 382 194 382 194 382 b 333 625 194 584 275 625 b 472 354 456 625 471 507 b 310 394 442 378 391 394 b 32 191 125 394 32 312 b 310 -12 32 69 125 -12 b 486 43 406 -12 460 10 b 541 0 506 0 541 0 l 726 0 l 726 17 b 657 139 726 17 657 17 z m 472 107 b 356 23 472 24 373 23 b 217 191 258 23 217 96 b 356 359 217 286 258 359 b 472 275 373 359 472 358 b 472 107 472 275 472 112 l 472 107 z "},"á":{"ha":746,"x_min":0,"x_max":0,"o":"m 357 694 b 364 697 359 694 362 695 l 502 811 b 494 833 511 819 506 833 l 405 833 b 394 826 400 833 396 830 l 345 712 b 357 694 342 704 348 694 z m 657 139 l 657 336 b 333 660 657 544 559 660 b 101 567 223 660 171 619 b 194 382 194 382 194 382 b 333 625 194 584 275 625 b 472 354 456 625 471 507 b 310 394 442 378 391 394 b 32 191 125 394 32 312 b 310 -12 32 69 125 -12 b 486 43 406 -12 460 10 b 541 0 506 0 541 0 l 726 0 l 726 17 b 657 139 726 17 657 17 z m 472 107 b 356 23 472 24 373 23 b 217 191 258 23 217 96 b 356 359 217 286 258 359 b 472 275 373 359 472 358 b 472 107 472 275 472 112 l 472 107 z "},"â":{"ha":746,"x_min":0,"x_max":0,"o":"m 287 694 l 296 694 b 300 696 297 694 298 695 l 352 738 b 360 738 355 740 358 740 l 412 696 b 416 694 414 695 415 694 l 425 694 b 430 704 430 694 433 700 l 362 830 b 350 830 359 834 353 834 l 282 704 b 287 694 279 700 282 694 z m 657 139 l 657 336 b 333 660 657 544 559 660 b 101 567 223 660 171 619 b 194 382 194 382 194 382 b 333 625 194 584 275 625 b 472 354 456 625 471 507 b 310 394 442 378 391 394 b 32 191 125 394 32 312 l 32 191 b 310 -12 32 69 125 -12 b 486 43 406 -12 460 10 b 541 0 506 0 541 0 l 726 0 l 726 17 b 657 139 726 17 657 17 z m 472 107 b 356 23 472 24 373 23 b 217 191 258 23 217 96 b 356 359 217 286 258 359 b 472 275 373 359 472 358 b 472 107 472 275 472 112 l 472 107 z "},"ã":{"ha":746,"x_min":0,"x_max":0,"o":"m 362 703 b 495 757 451 680 478 706 b 399 754 495 757 481 731 b 246 700 263 792 252 716 b 362 703 246 700 286 723 z m 657 139 l 657 336 b 333 660 657 544 559 660 b 101 567 223 660 171 619 b 194 382 194 382 194 382 b 333 625 194 584 275 625 b 472 354 456 625 471 507 b 310 394 442 378 391 394 b 32 191 125 394 32 312 l 32 191 b 310 -12 32 69 125 -12 b 486 43 406 -12 460 10 b 541 0 506 0 541 0 l 726 0 l 726 17 b 657 139 726 17 657 17 z m 472 107 b 356 23 472 24 373 23 b 217 191 258 23 217 96 b 356 359 217 286 258 359 b 472 275 373 359 472 358 b 472 107 472 275 472 112 l 472 107 z "},"ä":{"ha":746,"x_min":0,"x_max":0,"o":"m 309 695 b 349 751 335 699 354 725 b 293 792 345 778 320 796 b 253 736 266 788 248 762 b 309 695 257 709 282 691 z m 411 694 b 460 743 438 694 460 716 b 411 792 460 771 438 792 b 362 743 384 792 362 771 b 411 694 362 716 384 694 z m 657 139 l 657 336 b 333 660 657 544 559 660 b 101 567 223 660 171 619 b 194 382 194 382 194 382 b 333 625 194 584 275 625 b 472 354 456 625 471 507 b 310 394 442 378 391 394 b 32 191 125 394 32 312 b 310 -12 32 69 125 -12 b 486 43 406 -12 460 10 b 541 0 506 0 541 0 l 726 0 l 726 17 b 657 139 726 17 657 17 z m 472 107 b 356 23 472 24 373 23 b 217 191 258 23 217 96 b 356 359 217 286 258 359 b 472 275 373 359 472 358 b 472 107 472 275 472 112 l 472 107 z "},"å":{"ha":746,"x_min":0,"x_max":0,"o":"m 356 677 b 425 747 394 677 425 708 b 356 816 425 785 394 816 b 287 747 318 816 287 785 b 356 677 287 708 318 677 z m 356 772 b 381 747 370 772 381 760 b 356 721 381 733 370 721 b 331 747 342 721 331 733 b 356 772 331 760 342 772 z m 657 139 l 657 336 b 333 660 657 544 559 660 b 101 567 223 660 171 619 b 194 382 194 382 194 382 b 333 625 194 584 275 625 b 472 354 456 625 471 507 b 310 394 442 378 391 394 b 32 191 125 394 32 312 l 32 191 b 310 -12 32 69 125 -12 b 486 43 406 -12 460 10 b 541 0 506 0 541 0 l 726 0 l 726 17 b 657 139 726 17 657 17 z m 472 107 b 356 23 472 24 373 23 b 217 191 258 23 217 96 b 356 359 217 286 258 359 b 472 275 373 359 472 358 b 472 107 472 275 472 112 l 472 107 z "},"æ":{"ha":1114,"x_min":0,"x_max":0,"o":"m 883 46 b 720 139 813 46 758 79 b 765 280 719 202 733 247 b 1074 359 816 333 917 359 b 807 660 1074 567 964 660 b 583 572 723 660 644 626 b 333 660 531 629 448 660 b 101 567 223 660 171 619 b 194 382 194 382 194 382 b 333 625 194 584 275 625 b 472 354 456 625 471 507 b 310 394 442 378 391 394 b 32 191 125 394 32 312 l 32 191 b 310 -12 32 69 125 -12 b 565 97 450 -12 543 32 b 831 -12 630 30 724 -12 b 1074 104 975 -12 1050 69 l 1074 138 b 883 46 1074 138 1010 46 z m 472 127 b 356 23 472 41 385 23 b 217 191 258 23 217 96 b 356 359 217 286 258 359 b 472 275 373 359 472 358 z m 690 204 b 669 312 680 236 673 272 b 667 347 668 324 667 336 l 667 347 b 796 625 661 497 703 625 b 888 377 879 625 888 529 b 863 371 879 375 871 373 b 740 304 809 356 769 334 b 695 225 719 282 704 256 b 690 204 693 219 692 211 z "},"ç":{"ha":665,"x_min":0,"x_max":0,"o":"m 447 46 b 233 312 325 46 248 146 b 372 625 219 478 256 625 b 522 382 418 625 522 584 b 615 567 522 382 522 382 b 372 660 557 619 463 660 b 36 324 192 660 36 509 b 381 -11 36 143 185 -4 l 381 -45 b 391 -55 381 -50 385 -55 l 411 -55 b 416 -53 413 -55 415 -54 b 455 -67 425 -49 444 -46 b 459 -94 458 -73 459 -83 b 422 -136 459 -120 448 -136 b 422 -136 422 -136 422 -136 b 422 -136 422 -136 422 -136 b 386 -116 406 -136 390 -124 b 367 -116 382 -109 371 -109 l 361 -128 b 365 -141 359 -133 361 -138 b 425 -156 381 -149 398 -156 l 425 -156 b 505 -94 461 -156 505 -141 b 436 -32 505 -46 472 -32 l 436 -32 b 424 -33 432 -32 428 -33 b 413 -23 418 -34 413 -29 l 413 -11 b 638 104 546 -5 616 71 l 638 138 b 447 46 638 138 574 46 z "},"è":{"ha":679,"x_min":0,"x_max":0,"o":"m 232 811 l 369 697 b 377 694 372 695 374 694 b 388 712 386 694 392 704 l 340 826 b 329 833 338 830 333 833 l 239 833 b 232 811 228 833 223 819 z m 447 46 b 285 139 377 46 322 79 b 329 280 283 202 297 247 b 638 359 380 333 481 359 b 372 660 638 567 528 660 b 37 347 200 660 49 522 b 36 324 36 340 36 332 b 395 -12 36 139 192 -12 b 638 104 540 -12 615 69 l 638 138 b 447 46 638 138 574 46 z m 255 204 b 233 312 244 236 237 272 b 231 347 232 324 232 336 l 231 347 b 360 625 225 497 268 625 b 453 377 444 625 452 529 b 427 371 444 375 435 373 b 304 304 373 356 333 334 b 260 225 283 282 268 256 b 255 204 258 219 256 211 z "},"é":{"ha":679,"x_min":0,"x_max":0,"o":"m 378 694 b 386 697 381 694 383 695 l 524 811 b 516 833 532 819 527 833 l 426 833 b 415 826 422 833 417 830 l 367 712 b 378 694 364 704 369 694 z m 447 46 b 285 139 377 46 322 79 b 329 280 283 202 297 247 b 638 359 380 333 481 359 b 372 660 638 567 528 660 b 37 347 200 660 49 522 b 36 324 36 340 36 332 b 395 -12 36 139 192 -12 b 638 104 540 -12 615 69 l 638 138 b 447 46 638 138 574 46 z m 255 204 b 233 312 244 236 237 272 b 231 347 232 324 232 336 l 231 347 b 360 625 225 497 268 625 b 453 377 444 625 452 529 b 427 371 444 375 435 373 b 304 304 373 356 333 334 b 260 225 283 282 268 256 b 255 204 258 219 256 211 z "},"ê":{"ha":679,"x_min":0,"x_max":0,"o":"m 303 694 l 312 694 b 315 696 313 694 314 695 l 368 738 b 376 738 370 740 373 740 l 428 696 b 432 694 429 695 431 694 l 440 694 b 446 704 445 694 449 700 l 377 830 b 366 830 375 834 369 834 l 297 704 b 303 694 295 700 298 694 z m 447 46 b 285 139 377 46 322 79 b 329 280 283 202 297 247 b 638 359 380 333 481 359 b 372 660 638 567 528 660 b 37 347 200 660 49 522 b 36 324 36 340 36 332 b 395 -12 36 139 192 -12 b 638 104 540 -12 615 69 l 638 138 b 447 46 638 138 574 46 z m 255 204 b 233 312 244 236 237 272 b 231 347 232 324 232 336 l 231 347 b 360 625 225 497 268 625 b 453 377 444 625 452 529 b 427 371 444 375 435 373 b 304 304 373 356 333 334 b 260 225 283 282 268 256 b 255 204 258 219 256 211 z "},"ë":{"ha":679,"x_min":0,"x_max":0,"o":"m 317 694 b 366 743 344 694 366 716 b 317 792 366 771 344 792 b 268 743 290 792 268 771 b 317 694 268 716 290 694 z m 427 694 b 476 743 454 694 476 716 b 427 792 476 771 454 792 b 378 743 400 792 378 771 b 427 694 378 716 400 694 z m 447 46 b 285 139 377 46 322 79 b 329 280 283 202 297 247 b 638 359 380 333 481 359 b 372 660 638 567 528 660 b 37 347 200 660 49 522 b 36 324 36 340 36 332 b 395 -12 36 139 192 -12 b 638 104 540 -12 615 69 l 638 138 b 447 46 638 138 574 46 z m 255 204 b 233 312 244 236 237 272 b 231 347 232 324 232 336 l 231 347 b 360 625 225 497 268 625 b 453 377 444 625 452 529 b 427 371 444 375 435 373 b 304 304 373 356 333 334 b 260 225 283 282 268 256 b 255 204 258 219 256 211 z "},"ì":{"ha":379,"x_min":0,"x_max":0,"o":"m 35 811 l 173 697 b 181 694 175 695 178 694 b 192 712 189 694 195 704 l 143 826 b 132 833 141 830 137 833 l 43 833 b 35 811 31 833 26 819 z m 285 139 l 285 648 l 250 648 b 31 556 233 613 152 556 l 31 538 b 100 417 31 538 100 538 l 100 139 b 31 17 100 17 31 17 l 31 0 l 355 0 l 355 17 b 285 139 355 17 285 17 z "},"í":{"ha":379,"x_min":0,"x_max":0,"o":"m 164 694 b 172 697 167 694 170 695 l 310 811 b 302 833 318 819 313 833 l 213 833 b 202 826 208 833 203 830 l 153 712 b 164 694 150 704 155 694 z m 285 139 l 285 648 l 250 648 b 31 556 233 613 152 556 l 31 538 b 100 417 31 538 100 538 l 100 139 b 31 17 100 17 31 17 l 31 0 l 355 0 l 355 17 b 285 139 355 17 285 17 z "},"î":{"ha":379,"x_min":0,"x_max":0,"o":"m 118 694 l 127 694 b 130 696 128 694 129 695 l 183 738 b 191 738 185 740 188 740 l 243 696 b 247 694 244 695 246 694 l 256 694 b 261 704 260 694 264 700 l 192 830 b 181 830 190 834 184 834 l 112 704 b 118 694 110 700 113 694 z m 285 139 l 285 648 l 250 648 b 31 556 233 613 152 556 l 31 538 b 100 417 31 538 100 538 l 100 139 b 31 17 100 17 31 17 l 31 0 l 355 0 l 355 17 b 285 139 355 17 285 17 z "},"ï":{"ha":379,"x_min":0,"x_max":0,"o":"m 114 694 b 163 743 141 694 163 716 b 114 792 163 771 141 792 b 65 743 87 792 65 771 b 114 694 65 716 87 694 z m 225 694 b 274 743 252 694 274 716 b 225 792 274 771 252 792 b 176 743 198 792 176 771 b 225 694 176 716 198 694 z m 285 139 l 285 648 l 250 648 b 31 556 233 613 152 556 l 31 538 b 100 417 31 538 100 538 l 100 139 b 31 17 100 17 31 17 l 31 0 l 355 0 l 355 17 b 285 139 355 17 285 17 z "},"ð":{"ha":807,"x_min":0,"x_max":0,"o":"m 561 972 l 526 972 l 526 833 l 318 833 l 318 694 l 526 694 l 526 587 b 359 660 495 632 441 660 b 40 324 179 660 40 538 b 359 -12 40 110 179 -12 b 532 69 446 -12 501 20 b 596 0 548 0 596 0 l 781 0 l 781 17 b 712 139 781 17 712 17 l 712 694 l 781 694 l 781 833 l 734 833 b 781 862 754 862 781 862 l 781 880 b 561 972 659 880 578 937 z m 526 185 b 393 23 526 58 454 23 b 237 324 278 23 237 158 b 393 625 237 490 278 625 b 526 463 454 625 526 590 z "},"ñ":{"ha":815,"x_min":0,"x_max":0,"o":"m 390 703 b 523 757 478 680 506 706 b 427 754 523 757 509 731 b 274 700 291 792 280 716 b 390 703 274 700 313 723 z m 725 139 l 725 440 b 447 660 725 556 656 660 b 285 589 361 660 313 630 l 285 648 l 250 648 b 31 556 233 613 152 556 l 31 538 b 100 417 31 538 100 538 l 100 139 b 31 17 100 17 31 17 l 31 0 l 355 0 l 355 17 b 285 139 355 17 285 17 l 285 440 b 418 625 285 492 285 625 b 540 440 546 625 540 503 l 540 139 b 470 17 540 17 470 17 l 470 0 l 794 0 l 794 17 b 725 139 794 17 725 17 z "},"ò":{"ha":744,"x_min":0,"x_max":0,"o":"m 226 811 l 364 697 b 371 694 366 695 368 694 b 382 712 380 694 386 704 l 334 826 b 323 833 332 830 328 833 l 233 833 b 226 811 222 833 217 819 z m 372 660 b 36 324 192 660 36 509 b 372 -12 36 139 192 -12 b 707 324 551 -12 707 139 b 372 660 707 509 551 660 z m 398 24 b 233 312 312 17 248 146 b 346 624 219 478 259 616 b 510 336 432 631 496 502 b 398 24 525 171 484 32 z "},"ó":{"ha":744,"x_min":0,"x_max":0,"o":"m 372 694 b 380 697 375 694 378 695 l 518 811 b 510 833 527 819 521 833 l 421 833 b 410 826 416 833 412 830 l 361 712 b 372 694 358 704 364 694 z m 372 660 b 36 324 192 660 36 509 b 372 -12 36 139 192 -12 b 707 324 551 -12 707 139 b 372 660 707 509 551 660 z m 398 24 b 233 312 312 17 248 146 b 346 624 219 478 259 616 b 510 336 432 631 496 502 b 398 24 525 171 484 32 z "},"ô":{"ha":744,"x_min":0,"x_max":0,"o":"m 303 694 l 312 694 b 315 696 313 694 314 695 l 368 738 b 376 738 370 740 373 740 l 428 696 b 432 694 429 695 431 694 l 440 694 b 446 704 445 694 449 700 l 377 830 b 366 830 375 834 369 834 l 297 704 b 303 694 295 700 298 694 z m 372 660 b 36 324 192 660 36 509 b 372 -12 36 139 192 -12 b 707 324 551 -12 707 139 b 372 660 707 509 551 660 z m 398 24 b 233 312 312 17 248 146 b 346 624 219 478 259 616 b 510 336 432 631 496 502 b 398 24 525 171 484 32 z "},"õ":{"ha":744,"x_min":0,"x_max":0,"o":"m 355 703 b 488 757 443 680 471 706 b 392 754 488 757 474 731 b 239 700 256 792 245 716 b 355 703 239 700 278 723 z m 372 660 b 36 324 192 660 36 509 b 372 -12 36 139 192 -12 b 707 324 551 -12 707 139 b 372 660 707 509 551 660 z m 398 24 b 233 312 312 17 248 146 b 346 624 219 478 259 616 b 510 336 432 631 496 502 b 398 24 525 171 484 32 z "},"ö":{"ha":744,"x_min":0,"x_max":0,"o":"m 317 694 b 366 743 344 694 366 716 b 317 792 366 771 344 792 b 268 743 290 792 268 771 b 317 694 268 716 290 694 z m 427 694 b 476 743 454 694 476 716 b 427 792 476 771 454 792 b 378 743 400 792 378 771 b 427 694 378 716 400 694 z m 372 660 b 36 324 192 660 36 509 b 372 -12 36 139 192 -12 b 707 324 551 -12 707 139 b 372 660 707 509 551 660 z m 398 24 b 233 312 312 17 248 146 b 346 624 219 478 259 616 b 510 336 432 631 496 502 b 398 24 525 171 484 32 z "},"÷":{"ha":553,"x_min":0,"x_max":0,"o":"m 507 307 l 507 341 l 44 341 l 44 307 z m 276 370 b 397 492 343 370 397 425 b 276 613 397 559 343 613 b 154 492 209 613 154 559 b 276 370 154 425 209 370 z m 276 35 b 397 156 343 35 397 89 b 276 278 397 223 343 278 b 154 156 209 278 154 223 b 276 35 154 89 209 35 z "},"ø":{"ha":750,"x_min":0,"x_max":0,"o":"m 599 571 l 664 648 l 629 648 l 579 588 b 375 660 522 633 450 660 b 39 324 195 660 39 509 b 150 77 39 226 82 138 l 85 0 l 120 0 l 170 60 b 375 -12 228 15 299 -12 b 710 324 554 -12 710 139 b 599 571 710 422 667 510 z m 236 312 b 348 624 222 478 262 616 b 486 477 408 629 457 569 l 254 202 b 236 312 246 235 240 273 z m 401 24 b 263 171 341 19 293 79 l 495 447 b 513 336 503 413 509 375 b 401 24 527 171 487 32 z "},"ù":{"ha":811,"x_min":0,"x_max":0,"o":"m 254 811 l 392 697 b 399 694 394 695 396 694 b 410 712 408 694 414 704 l 362 826 b 351 833 360 830 356 833 l 261 833 b 254 811 250 833 245 819 z m 718 139 l 718 648 l 683 648 b 463 556 666 613 585 556 l 463 538 b 533 417 463 538 533 538 l 533 208 b 400 23 533 156 533 23 b 278 208 272 23 278 145 l 278 648 l 244 648 b 24 556 226 613 145 556 l 24 538 b 93 417 24 538 93 538 l 93 208 b 371 -12 93 93 163 -12 b 539 68 463 -12 513 23 b 602 0 555 0 602 0 l 787 0 l 787 17 b 718 139 787 17 718 17 z "},"ú":{"ha":811,"x_min":0,"x_max":0,"o":"m 406 694 b 414 697 409 694 412 695 l 552 811 b 544 833 560 819 555 833 l 454 833 b 443 826 450 833 445 830 l 395 712 b 406 694 392 704 397 694 z m 718 139 l 718 648 l 683 648 b 463 556 666 613 585 556 l 463 538 b 533 417 463 538 533 538 l 533 208 b 400 23 533 156 533 23 b 278 208 272 23 278 145 l 278 648 l 244 648 b 24 556 226 613 145 556 l 24 538 b 93 417 24 538 93 538 l 93 208 b 371 -12 93 93 163 -12 b 539 68 463 -12 513 23 b 602 0 555 0 602 0 l 787 0 l 787 17 b 718 139 787 17 718 17 z "},"û":{"ha":811,"x_min":0,"x_max":0,"o":"m 325 694 l 334 694 b 338 696 335 694 336 695 l 390 738 b 398 738 392 740 395 740 l 450 696 b 454 694 451 695 453 694 l 463 694 b 468 704 468 694 471 700 l 400 830 b 388 830 397 834 391 834 l 320 704 b 325 694 317 700 320 694 z m 718 139 l 718 648 l 683 648 b 463 556 666 613 585 556 l 463 538 b 533 417 463 538 533 538 l 533 208 b 400 23 533 156 533 23 b 278 208 272 23 278 145 l 278 648 l 244 648 b 24 556 226 613 145 556 l 24 538 b 93 417 24 538 93 538 l 93 208 b 371 -12 93 93 162 -12 b 539 68 463 -12 513 23 b 602 0 555 0 602 0 l 787 0 l 787 17 b 718 139 787 17 718 17 z "},"ü":{"ha":811,"x_min":0,"x_max":0,"o":"m 350 694 b 399 743 377 694 399 716 b 350 792 399 771 377 792 b 301 743 323 792 301 771 b 350 694 301 716 323 694 z m 461 694 b 510 743 488 694 510 716 b 461 792 510 771 488 792 b 412 743 434 792 412 771 b 461 694 412 716 434 694 z m 718 139 l 718 648 l 683 648 b 463 556 666 613 585 556 l 463 538 b 533 417 463 538 533 538 l 533 208 b 400 23 533 156 533 23 b 278 208 272 23 278 145 l 278 648 l 244 648 b 24 556 226 613 145 556 l 24 538 b 93 417 24 538 93 538 l 93 208 b 371 -12 93 93 162 -12 b 539 68 463 -12 513 23 b 602 0 555 0 602 0 l 787 0 l 787 17 b 718 139 787 17 718 17 z "},"ý":{"ha":819,"x_min":0,"x_max":0,"o":"m 484 694 b 492 697 487 694 490 695 l 630 811 b 622 833 639 819 634 833 l 533 833 b 522 826 528 833 524 830 l 473 712 b 484 694 470 704 476 694 z m 641 648 l 641 631 b 658 509 641 631 710 631 l 521 185 l 330 509 b 328 631 259 631 328 631 l 328 648 l 4 648 l 4 631 b 145 509 4 631 74 631 l 443 2 l 363 -185 b 236 -289 322 -272 276 -289 b 97 -46 184 -289 97 -243 b 4 -231 97 -46 97 -46 b 230 -324 74 -284 137 -324 b 398 -185 305 -324 357 -289 l 693 509 b 814 631 745 631 814 631 l 814 648 z "},"þ":{"ha":781,"x_min":0,"x_max":0,"o":"m 421 660 b 253 587 339 660 285 632 l 253 972 l 219 972 b -1 880 201 937 120 880 l -1 862 b 68 741 -1 862 68 862 l 68 -185 b -1 -307 68 -307 -1 -307 l -1 -324 l 184 -324 b 253 -203 184 -324 253 -324 l 253 61 b 421 -12 285 16 339 -12 b 739 324 600 -12 739 110 b 421 660 739 538 600 660 z m 386 23 b 253 185 326 23 253 58 l 253 463 b 386 625 253 590 326 625 b 543 324 502 625 543 490 b 386 23 543 158 502 23 z "},"ÿ":{"ha":819,"x_min":0,"x_max":0,"o":"m 429 694 b 478 743 456 694 478 716 b 429 792 478 771 456 792 b 380 743 402 792 380 771 b 429 694 380 716 402 694 z m 540 694 b 589 743 567 694 589 716 b 540 792 589 771 567 792 b 491 743 513 792 491 771 b 540 694 491 716 513 694 z m 641 648 l 641 631 b 658 509 641 631 710 631 l 521 185 l 330 509 b 328 631 259 631 328 631 l 328 648 l 4 648 l 4 631 b 145 509 4 631 74 631 l 443 2 l 363 -185 b 236 -289 322 -272 276 -289 b 97 -46 184 -289 97 -243 b 4 -231 97 -46 97 -46 b 230 -324 74 -284 137 -324 b 398 -185 305 -324 357 -289 l 693 509 b 814 631 745 631 814 631 l 814 648 z "},"€":{"ha":974,"x_min":0,"x_max":0,"o":"m 656 46 b 304 417 471 46 337 188 l 517 417 l 517 451 l 299 451 b 298 461 299 455 299 458 b 296 521 297 481 296 501 l 517 521 l 517 556 l 296 556 b 575 949 307 771 418 949 b 795 694 708 949 795 816 l 888 880 b 587 984 805 946 700 984 b 105 556 341 984 138 798 l 54 556 l 54 521 l 102 521 b 100 486 101 509 100 498 b 102 451 100 474 101 463 l 54 451 l 54 417 l 105 417 b 587 -12 138 175 338 -12 b 922 139 818 -12 905 110 l 922 174 b 656 46 922 174 841 46 z "},"":{"ha":1379,"x_min":0,"x_max":0,"o":"m 1068 35 b 945 97 910 35 931 80 b 1039 81 975 87 1006 81 b 1328 370 1194 81 1328 211 b 1039 660 1328 530 1194 660 b 750 370 884 660 750 530 b 910 113 750 258 816 160 b 842 6 887 96 842 57 b 1027 -116 842 -75 914 -116 b 1218 -203 1201 -116 1218 -168 b 958 -289 1218 -249 1166 -289 b 657 -93 825 -289 657 -278 b 657 336 657 -69 657 336 b 333 660 657 544 559 660 b 101 567 223 660 171 619 b 194 382 194 382 194 382 b 333 625 194 584 275 625 b 472 354 456 625 471 507 b 310 394 442 378 391 394 b 32 191 125 394 32 312 b 310 -12 32 69 125 -12 b 472 28 391 -12 442 4 l 472 0 b 946 -324 472 -324 784 -324 b 1375 -145 1276 -324 1375 -255 b 1068 35 1375 -29 1270 35 z m 1017 624 b 1143 379 1082 630 1130 520 b 1061 117 1155 239 1126 122 b 935 361 996 111 947 221 b 1017 624 923 501 952 618 z m 472 107 b 356 23 472 24 373 23 b 217 191 258 23 217 96 b 356 359 217 286 258 359 b 472 275 373 359 472 358 z m 1282 602 b 1351 671 1320 602 1351 633 b 1282 741 1351 710 1320 741 b 1212 671 1244 741 1212 710 b 1282 602 1212 633 1244 602 z "},"":{"ha":1433,"x_min":0,"x_max":0,"o":"m 1122 35 b 1000 97 964 35 986 80 b 1094 81 1030 87 1061 81 b 1383 370 1248 81 1383 211 b 1094 660 1383 530 1248 660 b 804 370 939 660 804 530 b 964 113 804 258 871 160 b 897 6 941 96 897 57 b 1082 -116 897 -75 968 -116 b 1273 -203 1256 -116 1273 -168 b 1012 -289 1273 -249 1221 -289 b 712 -93 879 -289 712 -278 b 712 741 712 -69 712 741 b 781 862 712 862 781 862 l 781 880 b 561 972 659 880 578 937 l 526 972 l 526 587 b 359 660 495 632 441 660 b 40 324 179 660 40 538 b 359 -12 40 110 179 -12 b 526 61 441 -12 495 16 l 526 0 b 1001 -324 526 -324 839 -324 b 1429 -145 1331 -324 1429 -255 b 1122 35 1429 -29 1325 35 z m 1071 624 b 1197 379 1136 630 1185 520 b 1116 117 1210 239 1181 122 b 990 361 1051 111 1002 221 b 1071 624 977 501 1006 618 z m 526 185 b 393 23 526 58 454 23 b 237 324 278 23 237 158 b 393 625 237 490 278 625 b 526 463 454 625 526 590 z m 1337 602 b 1406 671 1375 602 1406 633 b 1337 741 1406 710 1375 741 b 1267 671 1298 741 1267 710 b 1337 602 1267 633 1298 602 z "},"":{"ha":1001,"x_min":0,"x_max":0,"o":"m 691 35 b 568 97 532 35 554 80 b 662 81 598 87 629 81 b 951 370 816 81 951 211 b 662 660 951 530 816 660 b 372 370 507 660 372 530 b 532 113 372 258 439 160 b 465 6 509 96 465 57 b 650 -116 465 -75 536 -116 b 841 -203 824 -116 841 -168 b 581 -289 841 -249 789 -289 b 280 -93 447 -289 280 -278 b 280 613 280 -69 280 613 l 349 613 l 349 648 l 280 648 l 280 660 b 419 949 280 822 291 949 b 557 706 476 949 557 909 b 650 891 557 706 557 706 b 419 984 581 943 528 984 b 94 660 193 984 94 868 l 94 648 l 25 648 l 25 613 l 94 613 l 94 0 b 569 -324 94 -324 407 -324 b 997 -145 899 -324 997 -255 b 691 35 997 -29 893 35 z m 639 624 b 765 379 704 630 753 520 b 684 117 778 239 749 122 b 558 361 619 111 570 221 b 639 624 546 501 575 618 z m 905 602 b 974 671 943 602 974 633 b 905 741 974 710 943 741 b 835 671 866 741 835 710 b 905 602 835 633 866 602 z "},"":{"ha":1440,"x_min":0,"x_max":0,"o":"m 1129 35 b 1007 97 971 35 992 80 b 1100 81 1036 87 1068 81 b 1389 370 1255 81 1389 211 b 1100 660 1389 530 1255 660 b 811 370 945 660 811 530 b 971 113 811 258 877 160 b 903 6 948 96 903 57 b 1088 -116 903 -75 975 -116 b 1279 -203 1262 -116 1279 -168 b 1019 -289 1279 -249 1227 -289 b 718 -93 886 -289 718 -278 b 718 440 718 -69 718 440 b 440 660 718 556 649 660 b 278 589 354 660 306 630 l 278 972 l 244 972 b 24 880 226 937 145 880 l 24 862 b 93 741 24 862 93 862 l 93 139 b 24 17 93 17 24 17 l 24 0 l 348 0 l 348 17 b 278 139 348 17 278 17 l 278 440 b 411 625 278 492 278 625 b 533 440 539 625 533 503 l 533 0 b 1007 -324 533 -324 845 -324 b 1436 -145 1337 -324 1436 -255 b 1129 35 1436 -29 1331 35 z m 1078 624 b 1204 379 1143 630 1192 520 b 1122 117 1216 239 1187 122 b 996 361 1057 111 1008 221 b 1078 624 984 501 1013 618 z m 1343 602 b 1412 671 1381 602 1412 633 b 1343 741 1412 710 1381 741 b 1274 671 1305 741 1274 710 b 1343 602 1274 633 1305 602 z "},"":{"ha":1004,"x_min":0,"x_max":0,"o":"m 199 663 b 289 809 264 679 304 744 b 143 900 274 875 208 915 b 53 754 78 884 37 819 b 199 663 68 688 133 648 z m 692 35 b 569 97 534 35 555 80 b 663 81 599 87 631 81 b 952 370 818 81 952 211 b 663 660 952 530 818 660 b 374 370 508 660 374 530 b 534 113 374 258 440 160 b 466 6 511 96 466 57 b 651 -116 466 -75 538 -116 b 842 -203 825 -116 842 -168 b 582 -289 842 -249 790 -289 b 281 -93 449 -289 281 -278 b 281 648 281 -69 281 648 l 246 648 b 26 556 229 613 148 556 l 26 538 b 96 417 26 538 96 538 l 96 0 b 570 -324 96 -324 408 -324 b 999 -145 900 -324 999 -255 b 692 35 999 -29 894 35 z m 641 624 b 767 379 706 630 754 520 b 685 117 779 239 750 122 b 559 361 620 111 571 221 b 641 624 547 501 576 618 z m 906 602 b 975 671 944 602 975 633 b 906 741 975 710 944 741 b 837 671 868 741 837 710 b 906 602 837 633 868 602 z "},"":{"ha":976,"x_min":0,"x_max":0,"o":"m 664 35 b 542 97 506 35 527 80 b 635 81 571 87 603 81 b 925 370 790 81 925 211 b 635 660 925 530 790 660 b 346 370 481 660 346 530 b 506 113 346 258 413 160 b 438 6 483 96 438 57 b 624 -116 438 -75 510 -116 b 815 -203 797 -116 815 -168 b 554 -289 815 -249 762 -289 b 253 -93 421 -289 253 -278 b 253 972 253 -69 253 972 l 219 972 b -1 880 201 937 120 880 l -1 862 b 68 741 -1 862 68 862 l 68 0 b 543 -324 68 -324 381 -324 b 971 -145 872 -324 971 -255 b 664 35 971 -29 867 35 z m 613 624 b 739 379 678 630 727 520 b 657 117 751 239 722 122 b 531 361 593 111 544 221 b 613 624 519 501 548 618 z m 878 602 b 948 671 917 602 948 633 b 878 741 948 710 917 741 b 809 671 840 741 809 710 b 878 602 809 633 840 602 z "},"":{"ha":1840,"x_min":0,"x_max":0,"o":"m 1529 35 b 1407 97 1371 35 1393 80 b 1500 81 1437 87 1468 81 b 1790 370 1655 81 1790 211 b 1500 660 1790 530 1655 660 b 1211 370 1346 660 1211 530 b 1371 113 1211 258 1278 160 b 1304 6 1348 96 1304 57 b 1489 -116 1304 -75 1375 -116 b 1680 -203 1663 -116 1680 -168 b 1419 -289 1680 -249 1628 -289 b 1119 -93 1286 -289 1119 -278 b 1119 440 1119 -69 1119 440 b 858 660 1119 556 1066 660 b 682 546 748 660 701 604 b 441 660 651 612 582 660 b 285 591 359 660 312 630 l 285 648 l 250 648 b 31 556 233 613 152 556 l 31 538 b 100 417 31 538 100 538 l 100 139 b 31 17 100 17 31 17 l 31 0 l 355 0 l 355 17 b 285 139 355 17 285 17 l 285 440 b 407 625 285 492 291 625 b 517 440 517 625 517 503 l 517 139 b 447 17 517 17 447 17 l 447 0 l 771 0 l 771 17 b 702 139 771 17 702 17 l 702 440 b 823 625 702 492 708 625 b 933 440 933 625 933 503 l 933 0 b 1408 -324 933 -324 1246 -324 b 1836 -145 1738 -324 1836 -255 b 1529 35 1836 -29 1732 35 z m 1478 624 b 1604 379 1543 630 1592 520 b 1523 117 1616 239 1588 122 b 1397 361 1458 111 1409 221 b 1478 624 1384 501 1413 618 z m 1744 602 b 1813 671 1782 602 1813 633 b 1744 741 1813 710 1782 741 b 1674 671 1705 741 1674 710 b 1744 602 1674 633 1705 602 z "},"":{"ha":1447,"x_min":0,"x_max":0,"o":"m 1136 35 b 1013 97 978 35 999 80 b 1107 81 1043 87 1075 81 b 1396 370 1262 81 1396 211 b 1107 660 1396 530 1262 660 b 818 370 952 660 818 530 b 978 113 818 258 884 160 b 910 6 955 96 910 57 b 1095 -116 910 -75 982 -116 b 1286 -203 1269 -116 1286 -168 b 1026 -289 1286 -249 1234 -289 b 725 -93 893 -289 725 -278 b 725 440 725 -69 725 440 b 447 660 725 556 656 660 b 285 589 361 660 313 630 l 285 648 l 250 648 b 31 556 233 613 152 556 l 31 538 b 100 417 31 538 100 538 l 100 139 b 31 17 100 17 31 17 l 31 0 l 355 0 l 355 17 b 285 139 355 17 285 17 l 285 440 b 418 625 285 492 285 625 b 540 440 546 625 540 503 l 540 0 b 1014 -324 540 -324 852 -324 b 1443 -145 1344 -324 1443 -255 b 1136 35 1443 -29 1338 35 z m 1085 624 b 1211 379 1150 630 1198 520 b 1129 117 1223 239 1194 122 b 1003 361 1064 111 1015 221 b 1085 624 991 501 1020 618 z m 1350 602 b 1419 671 1388 602 1419 633 b 1350 741 1419 710 1388 741 b 1281 671 1312 741 1281 710 b 1350 602 1281 633 1312 602 z "},"":{"ha":1433,"x_min":0,"x_max":0,"o":"m 1122 35 b 1000 97 964 35 986 80 b 1094 81 1030 87 1061 81 b 1383 370 1248 81 1383 211 b 1094 660 1383 530 1248 660 b 804 370 939 660 804 530 b 964 113 804 258 871 160 b 897 6 941 96 897 57 b 1082 -116 897 -75 968 -116 b 1273 -203 1256 -116 1273 -168 b 1012 -289 1273 -249 1221 -289 b 712 -93 879 -289 712 -278 b 712 417 712 -69 712 417 b 781 538 712 538 781 538 l 781 556 b 561 648 659 556 578 613 l 526 648 l 526 587 b 359 660 495 632 441 660 b 40 324 179 660 40 538 b 359 -12 40 110 179 -12 b 526 61 441 -12 495 16 l 526 0 b 1001 -324 526 -324 839 -324 b 1429 -145 1331 -324 1429 -255 b 1122 35 1429 -29 1325 35 z m 1071 624 b 1197 379 1136 630 1185 520 b 1116 117 1210 239 1181 122 b 990 361 1051 111 1002 221 b 1071 624 977 501 1006 618 z m 526 185 b 393 23 526 58 454 23 b 237 324 278 23 237 158 b 393 625 237 490 278 625 b 526 463 454 625 526 590 z m 1337 602 b 1406 671 1375 602 1406 633 b 1337 741 1406 710 1375 741 b 1267 671 1298 741 1267 710 b 1337 602 1267 633 1298 602 z "},"":{"ha":1001,"x_min":0,"x_max":0,"o":"m 689 35 b 567 97 531 35 552 80 b 660 81 596 87 628 81 b 950 370 815 81 950 211 b 660 660 950 530 815 660 b 371 370 506 660 371 530 b 531 113 371 258 438 160 b 463 6 508 96 463 57 b 649 -116 463 -75 535 -116 b 840 -203 822 -116 840 -168 b 579 -289 840 -249 787 -289 b 278 -93 446 -289 278 -278 b 278 613 278 -69 278 613 l 371 613 l 371 648 l 278 648 l 278 810 l 244 810 b 24 648 226 749 145 648 l 24 631 b 93 509 24 631 93 631 l 93 0 b 568 -324 93 -324 406 -324 b 996 -145 897 -324 996 -255 b 689 35 996 -29 892 35 z m 638 624 b 764 379 703 630 752 520 b 682 117 776 239 747 122 b 556 361 618 111 569 221 b 638 624 544 501 573 618 z m 903 602 b 973 671 942 602 973 633 b 903 741 973 710 942 741 b 834 671 865 741 834 710 b 903 602 834 633 865 602 z "},"":{"ha":1440,"x_min":0,"x_max":0,"o":"m 1129 35 b 1007 97 971 35 992 80 b 1100 81 1036 87 1068 81 b 1389 370 1255 81 1389 211 b 1100 660 1389 530 1255 660 b 811 370 945 660 811 530 b 971 113 811 258 877 160 b 903 6 948 96 903 57 b 1088 -116 903 -75 975 -116 b 1279 -203 1262 -116 1279 -168 b 1019 -289 1279 -249 1227 -289 b 718 -93 886 -289 718 -278 b 718 648 718 -69 718 648 l 683 648 b 463 556 666 613 585 556 l 463 538 b 533 417 463 538 533 538 l 533 208 b 400 23 533 156 533 23 b 278 208 272 23 278 145 l 278 648 l 244 648 b 24 556 226 613 145 556 l 24 538 b 93 417 24 538 93 538 l 93 208 b 371 -12 93 93 162 -12 b 533 59 457 -12 506 18 l 533 0 b 1007 -324 533 -324 845 -324 b 1436 -145 1337 -324 1436 -255 b 1129 35 1436 -29 1331 35 z m 1078 624 b 1204 379 1143 630 1192 520 b 1122 117 1216 239 1187 122 b 996 361 1057 111 1008 221 b 1078 624 984 501 1013 618 z m 1343 602 b 1412 671 1381 602 1412 633 b 1343 741 1412 710 1381 741 b 1274 671 1305 741 1274 710 b 1343 602 1274 633 1305 602 z "},"":{"ha":742,"x_min":0,"x_max":0,"o":"m 649 139 l 649 972 l 614 972 b 394 880 597 937 516 880 l 394 862 b 463 741 394 862 463 862 l 463 139 b 394 17 463 17 394 17 l 394 0 l 718 0 l 718 17 b 649 139 718 17 649 17 z m 278 139 l 278 880 l 244 880 b 24 787 226 845 145 787 l 24 770 b 93 648 24 770 93 770 l 93 139 b 24 17 93 17 24 17 l 24 0 l 348 0 l 348 17 b 278 139 348 17 278 17 z "},"":{"ha":724,"x_min":0,"x_max":0,"o":"m 400 556 l 400 538 b 469 417 400 538 469 538 l 469 0 b 330 -289 469 -139 457 -289 b 168 -46 272 -289 168 -249 b 75 -231 168 -46 168 -46 b 336 -324 145 -284 220 -324 b 654 0 556 -324 654 -208 l 654 648 l 619 648 b 400 556 602 613 521 556 z m 353 17 b 284 139 353 17 284 17 l 284 613 l 353 613 l 353 648 l 284 648 l 284 660 b 417 949 284 822 295 949 b 513 899 450 949 487 943 b 423 781 461 885 423 838 b 544 660 423 714 477 660 b 666 781 611 660 666 714 b 423 984 666 903 533 984 b 99 660 197 984 99 868 l 99 648 l 29 648 l 29 613 l 99 613 l 99 139 b 29 17 99 17 29 17 l 29 0 l 353 0 l 353 17 z "},"":{"ha":724,"x_min":0,"x_max":0,"o":"m 608 156 l 608 613 l 700 613 l 700 648 l 608 648 l 608 810 l 573 810 b 353 648 556 749 475 648 l 284 648 l 284 660 b 423 949 284 822 295 949 b 549 827 466 949 523 926 b 549 827 549 827 549 827 b 608 925 582 873 605 919 b 423 984 557 960 507 984 b 99 660 197 984 99 868 l 99 648 l 29 648 l 29 613 l 99 613 l 99 139 b 29 17 99 17 29 17 l 29 0 l 353 0 l 353 17 b 284 139 353 17 284 17 l 284 613 l 353 613 b 423 492 353 613 423 613 l 423 122 b 492 0 423 0 492 0 l 700 0 l 700 17 b 608 156 700 17 608 17 z "},"":{"ha":1183,"x_min":0,"x_max":0,"o":"m 1093 139 l 1093 440 b 815 660 1093 556 1023 660 b 653 589 729 660 680 630 l 653 972 l 618 972 b 398 880 601 937 520 880 l 398 862 b 468 741 398 862 468 862 l 468 139 b 398 17 468 17 398 17 l 398 0 l 722 0 l 722 17 b 653 139 722 17 653 17 l 653 440 b 786 625 653 492 653 625 b 907 440 913 625 907 503 l 907 139 b 838 17 907 17 838 17 l 838 0 l 1162 0 l 1162 17 b 1093 139 1162 17 1093 17 z m 352 613 l 352 648 l 282 648 l 282 660 b 421 949 282 822 294 949 b 489 927 442 949 467 944 b 551 958 513 936 534 946 b 421 984 516 974 476 984 b 97 660 196 984 97 868 l 97 648 l 28 648 l 28 613 l 97 613 l 97 139 b 28 17 97 17 28 17 l 28 0 l 352 0 l 352 17 b 282 139 352 17 282 17 l 282 613 z "},"":{"ha":1192,"x_min":0,"x_max":0,"o":"m 978 133 l 682 382 l 856 509 b 1093 631 1023 631 1093 631 l 1093 648 l 919 648 l 919 631 b 822 509 919 631 988 631 l 653 386 l 653 972 l 618 972 b 398 880 601 937 520 880 l 398 862 b 468 741 398 862 468 862 l 468 139 b 398 17 468 17 398 17 l 398 0 l 722 0 l 722 17 b 653 139 722 17 653 17 l 653 251 l 786 139 b 861 17 931 17 861 17 l 861 0 l 1185 0 l 1185 17 b 978 133 1185 17 1118 17 z m 352 613 l 352 648 l 282 648 l 282 660 b 421 949 282 822 294 949 b 489 927 442 949 467 944 b 551 958 513 936 534 946 b 421 984 516 974 476 984 b 97 660 196 984 97 868 l 97 648 l 28 648 l 28 613 l 97 613 l 97 139 b 28 17 97 17 28 17 l 28 0 l 352 0 l 352 17 b 282 139 352 17 282 17 l 282 613 z "},"":{"ha":1182,"x_min":0,"x_max":0,"o":"m 822 660 b 654 587 740 660 686 632 l 654 972 l 619 972 b 400 880 602 937 521 880 l 400 862 b 469 741 400 862 469 862 l 469 139 b 400 17 469 17 400 17 l 400 0 l 585 0 b 649 69 585 0 632 0 b 822 -12 679 20 735 -12 b 1140 324 1001 -12 1140 110 b 822 660 1140 538 1001 660 z m 787 23 b 654 185 727 23 654 58 l 654 463 b 787 625 654 590 727 625 b 944 324 903 625 944 490 b 787 23 944 158 903 23 z m 353 613 l 353 648 l 284 648 l 284 660 b 423 949 284 822 295 949 b 490 927 444 949 468 944 b 553 958 515 936 536 946 b 423 984 517 974 477 984 b 99 660 197 984 99 868 l 99 648 l 29 648 l 29 613 l 99 613 l 99 139 b 29 17 99 17 29 17 l 29 0 l 353 0 l 353 17 b 284 139 353 17 284 17 l 284 613 z "},"ﬀ":{"ha":751,"x_min":0,"x_max":0,"o":"m 792 984 b 468 660 566 984 468 868 l 468 648 l 282 648 l 282 660 b 421 949 282 822 294 949 b 506 912 448 949 479 940 b 555 956 520 928 536 943 b 421 984 519 973 478 984 b 97 660 196 984 97 868 l 97 648 l 28 648 l 28 613 l 97 613 l 97 139 b 28 17 97 17 28 17 l 28 0 l 352 0 l 352 17 b 282 139 352 17 282 17 l 282 613 l 468 613 l 468 139 b 398 17 468 17 398 17 l 398 0 l 722 0 l 722 17 b 653 139 722 17 653 17 l 653 613 l 722 613 l 722 648 l 653 648 l 653 660 b 792 949 653 822 664 949 b 931 706 850 949 931 909 b 1023 891 931 706 931 706 b 792 984 954 943 902 984 z "},"ﬁ":{"ha":746,"x_min":0,"x_max":0,"o":"m 653 139 l 653 648 l 618 648 b 398 556 601 613 520 556 l 398 538 b 468 417 398 538 468 538 l 468 139 b 398 17 468 17 398 17 l 398 0 l 722 0 l 722 17 b 653 139 722 17 653 17 z m 352 613 l 352 648 l 282 648 l 282 660 b 416 949 282 822 294 949 b 511 899 449 949 486 943 b 421 781 460 885 421 838 b 543 660 421 714 476 660 b 664 781 610 660 664 714 b 421 984 664 903 531 984 b 97 660 196 984 97 868 l 97 648 l 28 648 l 28 613 l 97 613 l 97 139 b 28 17 97 17 28 17 l 28 0 l 352 0 l 352 17 b 282 139 352 17 282 17 l 282 613 z "},"ﬂ":{"ha":746,"x_min":0,"x_max":0,"o":"m 653 139 l 653 972 l 618 972 b 398 880 601 937 520 880 l 398 862 b 468 741 398 862 468 862 l 468 139 b 398 17 468 17 398 17 l 398 0 l 722 0 l 722 17 b 653 139 722 17 653 17 z m 352 613 l 352 648 l 282 648 l 282 660 b 421 949 282 822 294 949 b 489 927 442 949 467 944 b 551 958 513 936 534 946 b 421 984 516 974 476 984 b 97 660 196 984 97 868 l 97 648 l 28 648 l 28 613 l 97 613 l 97 139 b 28 17 97 17 28 17 l 28 0 l 352 0 l 352 17 b 282 139 352 17 282 17 l 282 613 z "}}}
